<?xml version="1.0" encoding="UTF-8" standalone="no"?>
<svg
   xmlns:dc="http://purl.org/dc/elements/1.1/"
   xmlns:cc="http://creativecommons.org/ns#"
   xmlns:rdf="http://www.w3.org/1999/02/22-rdf-syntax-ns#"
   xmlns:svg="http://www.w3.org/2000/svg"
   xmlns="http://www.w3.org/2000/svg"
   viewBox="0 0 4666.6665 1969.1866"
   height="1969.1866"
   width="4666.6665"
   xml:space="preserve"
   id="svg2"
   version="1.1"><metadata
     id="metadata8"><rdf:RDF><cc:Work
         rdf:about=""><dc:format>image/svg+xml</dc:format><dc:type
           rdf:resource="http://purl.org/dc/dcmitype/StillImage" /></cc:Work></rdf:RDF></metadata><defs
     id="defs6" /><g
     transform="matrix(1.3333333,0,0,-1.3333333,0,1969.1867)"
     id="g10"><g
       transform="scale(0.1)"
       id="g12"><g
         transform="scale(2.14724)"
         id="g14"><path
           id="path16"
           style="fill:#000000;fill-opacity:1;fill-rule:evenodd;stroke:none"
           d="m 8125.69,2809.79 c 340.9,0 662.9,-406.79 719.11,-908.46 56.3,-501.77 -174.5,-908.427 -515.41,-908.427 -341.04,0 -663.03,406.657 -719.25,908.427 -56.3,501.67 174.51,908.46 515.55,908.46 z m -68.04,90.8 c 382.12,0 743,-445.2 806.1,-994.28 63.06,-549.12 -195.6,-994.161 -577.71,-994.161 -382.12,0 -743.01,445.041 -806.11,994.161 -63.06,549.08 195.6,994.28 577.72,994.28 z m -57.47,134.54 c 434.37,0 844.71,-505.35 916.34,-1128.82 71.72,-623.36 -222.29,-1128.707 -656.8,-1128.707 -434.42,0 -844.76,505.347 -916.48,1128.707 -71.58,623.47 222.43,1128.82 656.94,1128.82 z m -15.42,67.27 c 457.15,0 889.01,-535.48 964.41,-1196.09 75.44,-660.48 -233.98,-1196.003 -691.26,-1196.003 -457.15,0 -888.87,535.523 -964.41,1196.003 -75.39,660.61 234.12,1196.09 691.26,1196.09 z m 62.08,279.25 c -235.51,-31.15 -388.21,-87.61 -556.71,-264.25 -423.61,-444.05 -439.5,-1234.38 -244.31,-1780.29 39.16,-109.72 83.96,-197.6 131.75,-302.01 -249.63,347.56 -340.81,892.17 -283.2,1315 65.52,480.55 404,1064.74 952.47,1031.55 z m -2609.67,2456.42 -97.52,-191.77 -107.72,-10.04 c -36.98,67.27 -63.95,70.7 -63.95,70.7 l 131.24,538.28 z m 3754.91,-275.82 309.52,-37.01 -487.93,464.28 z m -343.23,578.72 248.97,-571.98 c 0,0 -834.42,70.57 -992.62,63.83 -158.07,-6.61 -831.02,-37 -831.02,-37 0,0 -13.46,181.72 -104.28,181.72 -90.76,0 -356.69,-13.48 -528.21,-20.23 -171.57,-6.74 -259.03,-70.57 -259.03,-70.57 0,0 676.26,622.46 915.04,645.99 238.95,23.53 1325.7,20.22 1325.7,20.22 z M 5596.4,6565.44 c 1836.63,59.64 2963.29,22 3249.8,-154.12 286.5,-176.12 1216.8,-1078.73 1216.8,-1078.73 -495.69,-18.95 -1754.47,-25.18 -2230.8,-47.18 -476.48,-22.13 -1799.62,-91.3 -1799.62,-91.3 0,0 -399.16,1138.49 -421.7,1206.15 -22.49,67.65 -59.52,165.18 -14.48,165.18 z m -100.32,63.33 c 1919.4,63.96 3097.05,23.52 3396.5,-164.81 299.36,-188.45 1271.82,-1154.13 1271.82,-1154.13 -518.25,-20.09 -1833.75,-26.83 -2331.69,-50.36 -497.99,-23.65 -1880.74,-97.66 -1880.74,-97.66 0,0 -417.24,1217.97 -440.75,1290.33 -23.57,72.35 -62.22,176.63 -15.14,176.63 z m 166.59,-1389.52 -592.21,57.23 c 0,0 10.02,164.8 50.49,386.83 40.28,222.15 151.31,693.17 151.31,693.17 z m -363.45,1221.28 403.73,-1258.28 -639.24,53.79 h -70.69 c 0,0 16.9,134.54 63.94,444.18 47.18,309.52 195.23,763.74 195.23,763.74 z M 3129.05,3126.31 c -106.44,198.62 -132.64,301.38 -183.76,513.86 -98.29,407.94 -92.95,649.17 -32.17,1062.84 25.05,170.39 80.24,341.3 186.42,479.78 64.48,84.06 173.71,111.52 276.46,121.19 -16.28,2.03 -32.81,4.07 -49.22,6.1 -216.43,27.47 -641.66,102.49 -828.46,208.17 -153.62,86.98 -54.68,166.58 44.75,244.15 265.01,206.77 646.38,457.79 942.54,626.41 211.48,120.42 252.17,145.09 488.69,165.82 438.46,38.66 920.78,49.98 1361.44,61.42 340.15,-967.71 176.87,-485.76 490.44,-1445.85 l -51.23,-16.66 c -305.6,946.48 -179.81,461.61 -458.31,1400.45 -439.73,-9.66 -863.95,-15.76 -1301.65,-52.39 -230.04,-19.32 -265.01,-28.35 -472.16,-145.09 -295.27,-166.46 -672.81,-417.99 -937.57,-622.34 -133.01,-102.87 -172.69,-138.23 6.48,-212.74 480.56,-199.78 1392.95,-239.7 1937.85,-263.48 360.76,-15.77 724.58,-45.53 1085.09,-74.4 63.71,-5.08 44.38,-2.92 85.08,-8.26 v 0 l -22.26,0.13 c -246.31,5.47 -501.01,23.14 -749.38,31.02 -512.34,16.28 -1003.58,31.92 -1510.58,90.29 -54.29,-27.59 -170.52,-42.34 -242.5,-93.97 -67.01,-47.94 -129.19,-216.56 -153.61,-294.01 -53.28,-168.87 -59.26,-511.7 -68.92,-695.33 -16.28,-305.32 42.72,-579.73 104.52,-876.15 l -0.63,1.91 c 41.07,-140.14 23.53,-69.18 52.65,-212.87 z m 2779.14,1880.74 c 1.4,-11.69 -51.74,-304.94 -57.84,-357.84 -41.45,-362.92 -34.32,-835.46 -24.92,-1205.25 4.8,-193.67 7.73,-394.84 20.36,-587.24 9.78,-150.56 28.31,-84.06 56.58,-184.39 12.71,-45.02 39.77,-260.3 29.34,-299.72 -23.38,35.35 -57.19,208.54 -71.3,261.57 -18.44,68.79 -46.29,69.18 -65.25,127.17 -30.04,91.94 -59.8,573.76 -69.3,711.99 -23.93,347.15 1.4,699.39 46.76,1044.01 12.34,93.97 73.91,427.65 135.57,489.7 z M 2980.9,3343.75 c -2.92,8.14 -5.72,16.41 -8.52,24.67 -7.88,23.15 -15.01,46.55 -21.87,70.07 -235.38,53.79 -486.4,114.45 -823.38,191.64 -52.9,124.74 -105.8,249.11 -165.96,366.61 -72.86,141.79 -107.19,166.08 -261.95,215.41 -109.1,34.72 -532.18,124.12 -629.84,65.49 -92.446,-55.44 -62.31,-206.63 -0.89,-353.89 -116.606,31.79 -291.46,79.22 -641.159,174.85 v 0 l 659.979,-217.84 c 52.65,-115.08 119.28,-221.77 154.76,-270.6 -49.98,113.56 -284.212,534.85 -160.86,627.81 76.42,57.6 508.14,-47.94 602.25,-76.68 103.5,-31.67 153.86,-44.89 209.43,-136.83 128.05,-211.98 326.94,-740.48 466.18,-885.31 -75.41,129.45 -138.1,270.48 -198.88,412.89 264.12,-75.02 452.19,-122.96 820.71,-208.29 z m 2820.08,-682.1 c -3.54,5.6 -7.49,11.44 -12.29,18.06 -16.44,22.25 -27.48,41.07 -36.14,67.78 -4.42,13.47 -7.64,28.23 -10.15,42.72 -1589.82,375.13 -1238.34,293.88 -2633.19,612.16 3.81,-18.18 7.63,-36.36 11.44,-54.55 3.82,-12.84 7.88,-25.94 11.96,-39.16 280.52,-64.98 643.7,-149.29 1153.24,-271.62 759.19,-182.36 1209.81,-297.95 1515.13,-375.39 z m 780.54,-69.43 c -250.23,59 -468.97,110.63 -662.38,156.28 12.06,-19.83 18.81,-37.13 26.45,-63.96 3.68,-12.97 8.01,-35.35 12.34,-62.56 275.7,-69.05 418.63,-100.21 630.72,-129.2 -2.52,32.68 -4.94,65.87 -7.13,99.44 z m 2917.65,-425.48 c -10.29,23.89 -20.49,47.69 -30.5,71.2 -94.12,222.03 -186.7,445.07 -281.06,666.85 -245.52,576.69 -842.2,729.03 -1412.42,780.91 -241.1,22 -595.37,41.84 -797.67,-107.71 -166.22,-122.97 -309.75,-370.05 -354.55,-571.47 -15.37,-69.43 -45.78,-208.81 -51.46,-277.85 27.2,76.8 48.57,192.52 69.53,273.91 52.76,205.49 214.41,469.87 400.84,576.56 196.44,112.53 592.43,79.22 813.09,50.86 524.91,-67.52 1062.15,-215.42 1295.24,-741.11 112.43,-253.56 222.66,-507.38 337.27,-760.2 55.05,-121.55 163.38,-378.4 233.19,-483.46 -60.5,153.5 -130.96,312.45 -198.35,467.86 228.9,-30.55 546.98,-75.82 1240.88,-167.75 -233.1,39.81 -715.7,128.16 -1264.03,221.4 z m 5523.63,1915.07 c -61.4,-17.42 -215.8,-33.95 -292.1,-45.78 -181.2,-28.1 -377.9,-66.89 -554.8,-109.1 -41.4,-9.92 -15.9,-9.92 -86.8,-31.8 -59.6,0.64 -289.2,-16.52 -834.9,-61.8 l -852.4,-64.47 v 0 c 1132.9,120.42 566.6,64.47 1699.9,168.24 73.2,20.85 138.4,35.86 212.5,49.97 132.5,25.18 600.3,99.32 708.6,94.74 z m -50.5,-417.22 c -69.6,-22.38 -304.3,-59.13 -392.9,-76.05 -166.2,-31.66 -349.3,-64.98 -512,-108.85 -109.5,-29.5 -272.8,-42.98 -388,-57.1 -421.2,-51.62 -843.6,-98.16 -1265.1,-149.28 -38.7,-4.71 -21.5,-2.93 -56.2,-5.72 45,11.82 89.2,18.43 135.2,25.93 495.8,79.49 1021.7,143.44 1520.9,199.65 145,39.17 293.1,66 441,92.07 104.2,18.43 428.7,78.71 517.1,79.35 z M 2944.53,4998.02 c -19.07,-47.43 -34.84,-96.39 -47.56,-146.1 -374.37,64.85 -749.37,134.15 -1127.81,203.96 -479.53,88.38 -929.053,134.54 -1413.169,188.72 -33.95,3.81 -132.756,11.31 -159.589,25.94 29.122,12.97 126.656,10.55 161.498,10.67 481.186,1.53 992.64,-46.28 1470.01,-117.24 373.74,-55.57 745.43,-112.28 1116.62,-165.95 z m 2818.82,-278.87 c -14.11,-64.72 -26.68,-131.36 -35.2,-195.95 -0.66,-4.71 -1.26,-9.54 -1.77,-14.25 -126.91,4.96 -253.58,10.94 -384.45,20.73 -772.76,57.73 -1523.92,165.57 -2275.7,293.24 4.83,24.67 10.68,49.08 18.06,72.36 6.1,19.45 15.76,47.68 27.71,78.84 819.19,-115.97 1637.63,-213.51 2473.08,-246.95 59.52,-2.42 118.9,-5.09 178.27,-8.02 z m 5401.45,-673.33 c -79.4,-22.76 -2176.05,206.52 -2405.32,229.53 -894.12,89.78 -1819.08,183.5 -2715.95,221.4 -54.72,2.28 -108.61,4.32 -162.16,6.35 3.68,47.18 8.15,94.23 13.6,141.03 2.42,21.87 6.51,44.38 10.05,66.25 l 0.24,1.4 c 682.36,-38.41 1356.11,-110.25 2036.94,-191 322.83,-38.28 3084.6,-390.52 3222.6,-474.96 z m 639.2,222.03 c 0,0 -619,178.28 -1110.3,272.51 -491.2,94.23 -1820.17,309.52 -2314.71,376.79 -494.68,67.4 -1490.61,185.15 -1046.41,205.24 444.06,20.22 2099.44,131.23 2099.44,131.23 l -1702.47,-40.31 -1853.91,-97.66 c 0,0 6.75,-47.05 107.72,-67.27 100.96,-20.09 386.96,-37 595.51,-60.53 208.68,-23.53 2059.15,-232.2 2530.18,-309.52 470.97,-77.44 1860.55,-296.03 2038.95,-336.47 178.3,-40.31 309.5,-104.27 309.5,-104.27 l 346.5,30.26 z M 3050.59,5192.2 c 4.45,5.98 8.9,11.95 13.35,17.93 20.35,26.45 44,47.94 70.19,65.49 -485.25,79.1 -1270.62,216.94 -1497.73,216.94 -272.51,0 -1305.459,-100.97 -1305.459,-100.97 390.265,40.44 1379.469,13.49 1594.759,-23.52 215.41,-37.01 891.67,-121.19 1120.44,-174.98 1.27,-0.25 3.04,-0.64 4.45,-0.89 z m 2798.22,-193.03 c 4.57,8.52 9.27,16.27 14.11,23.14 -583.16,41.08 -2079.36,159.72 -2463.78,212.24 -2.67,-0.89 -5.47,-1.66 -8.14,-2.55 -31.16,-9.28 -62.69,-17.67 -93.34,-28.61 -24.41,-8.65 -50.35,-19.32 -72.1,-33.95 577.96,-57.99 2243.28,-147.64 2623.25,-170.27 z m 5537.99,-765.02 c 0,0 -63.8,57.23 -191.8,77.45 -127.8,20.21 -1594.72,275.81 -1836.98,312.94 -242.27,37.01 -1103.51,154.76 -1598.2,215.29 -494.54,60.53 -1345.77,148.02 -1732.73,171.55 -20.73,1.27 -45.87,2.92 -74.75,4.83 l 0.37,-4.07 c 0.66,-4.83 0.24,-11.83 -0.51,-19.71 433.49,-30.65 1351.36,-120.81 1854.8,-196.34 538.27,-80.75 3223.2,-538.29 3223.2,-538.29 0,0 242.3,26.84 356.6,-23.65 z m 1217.9,696.48 c 0,0 -1098.4,146.36 -1397.8,188.45 -299.5,42.09 -900.1,77.32 -900.1,77.32 0,0 607.3,30.39 730.2,25.31 122.7,-5.09 942,-106.06 942,-106.06 l 1128.8,-115.97 c 0,0 -420.6,-74.01 -503.1,-69.05 z M 10004,4706.95 c 28.1,156.41 51.4,130.97 -77.3,147.25 -430.32,54.43 -857.33,99.44 -1287.79,159.72 -93.7,13.22 -651.07,98.3 -695.59,92.32 -56.08,-7.5 -125,-43.36 -178.42,-62.82 45.04,34.46 117.5,72.99 174.74,83.93 7.77,1.4 23.66,1.65 45.54,0.76 247.3,13.23 1470.5,78.46 1530.9,78.46 67.39,0 1527.62,-188.46 2301.42,-316.25 773.8,-127.93 2008.7,-380.22 1890.9,-383.66 -117.9,-3.3 -1325.7,-104.27 -1355.9,-104.27 -30.3,0 -80.8,-40.31 -124.5,-53.79 -43.8,-13.48 -262.5,-63.96 -302.8,-63.96 -40.5,0 -1202.8,275.94 -1322.4,294.38 -119.4,18.56 -620.68,95.88 -553.4,102.62 67.3,6.74 545,57.22 710,80.75 164.8,23.65 656,67.27 476.1,84.18 -180.1,16.79 -689.8,16.79 -868.2,11.7 -172.5,-4.83 -302.5,-6.61 -326,-40.18 -3.5,-41.08 -30.3,-98.68 -37.3,-111.14 z m 5044.1,-1121.84 c 6.9,-22.12 39.4,-114.19 104.5,-123.09 74,-10.05 666.2,45.39 743.5,62.18 77.5,16.91 129.6,62.31 148,144.71 18.6,82.4 60.7,437.44 50.5,524.93 -10,87.49 -58.8,114.32 -131.2,114.32 0,0 -628.3,-3.31 -707.3,-20.09 -61.7,-13.22 -92.6,-88.5 -114.4,-122.84 v 0 c -30.3,-65.62 -92.6,-247.33 -101,-429.05 -3.3,-72.61 1,-120.17 7.4,-151.07 z m -2907.6,339.53 c -70.6,-1.66 -168.2,-90.8 -196.9,-186.68 -28.6,-96.01 -31.9,-193.54 15.2,-48.83 47.1,144.71 181.7,235.51 181.7,235.51 z m 100.9,-21.87 c 35.4,-47.06 40.4,-127.81 13.5,-89.15 -26.9,38.66 -124.5,85.84 -92.5,65.62 31.9,-20.22 124.4,-143.06 136.3,-265.77 11.7,-122.84 -5.1,-259.16 -92.6,-393.7 -87.5,-134.54 -193.4,-134.54 -193.4,-134.54 0,0 94.2,-13.48 169.9,65.62 75.7,78.96 129.5,285.99 127.8,240.46 -1.7,-45.39 -48.7,-183.37 -20.1,-127.79 28.4,55.43 72.2,169.88 67.2,297.69 -5,127.92 -62.3,287.77 -116.1,341.56 z m -603.9,-97.54 c -10.9,1.53 -75.1,-66.13 -96.6,-101.6 8.6,61.54 19,105.92 31,120.04 57.1,67.27 223.7,84.18 302.8,92.57 79.1,8.4 393.7,50.49 450.8,48.71 57.2,-1.66 63.9,-115.97 112.8,-115.97 48.7,0 1710.8,142.93 1710.8,142.93 0,0 735.8,118.26 929.8,149.16 -67.4,-154.63 -76.3,-489.58 -63.4,-556.22 l 0.2,-0.76 -934.7,-172.56 c 0,0 -1680.6,-246.44 -1710.9,-247.33 -30.2,-0.76 -43.7,-118.52 -120.3,-154.76 -76.5,-36.11 -631.6,-142.17 -684.6,-142.17 -53,0 -68.2,30.4 -68.2,85.84 0,10.68 0.6,47.31 2.2,99.82 21.2,-36.24 62.6,-67.02 62.6,-67.02 52.1,13.49 207,136.33 233.8,429.06 27,292.6 -158.1,390.26 -158.1,390.26 z m 494.6,85.71 c -18.6,-3.31 -159.8,-129.45 -205.2,-351.48 -45.5,-222.15 65.6,-434.14 65.6,-434.14 0,0 82.4,-3.3 134.5,33.7 52.1,37.01 171.7,208.55 163.3,422.19 -8.5,213.75 -158.2,329.73 -158.2,329.73 z m 3807,365.08 c 0,0 55.4,-126.14 0,-65.61 -55.5,60.53 -126.3,62.31 -124.5,50.48 1.7,-11.83 72.4,-142.93 57.1,-280.9 -15.1,-137.97 -79,-254.07 -79,-275.95 0,-21.87 143,206.9 134.6,89.14 -8.4,-117.75 -186.7,-230.42 -106,-183.37 80.8,47.19 178.3,156.54 195.1,306.22 16.8,149.79 -6.7,292.73 -77.3,359.99 z m -173.3,-26.96 c -21.9,1.79 -185,-121.05 -201.8,-317.9 -16.9,-196.85 117.7,-307.86 117.7,-307.86 48.7,47.17 141.3,183.36 158.1,312.94 16.8,129.58 -15.2,257.38 -74,312.82 z m 55.5,48.84 c 5,16.78 -106,10.17 -154.7,-18.44 -48.8,-28.61 -122.8,-116.1 -143.1,-193.54 -20.2,-77.32 21.9,-20.1 15.2,-85.72 -6.8,-65.61 16.8,-196.84 16.8,-196.84 -15.2,89.14 -11.7,163.15 30.3,274.16 42,111.01 166.5,220.38 235.5,220.38 z m -504.7,-72.36 c 0,0 77.4,-18.44 64,10.17 -13.5,28.62 -65.6,43.75 -65.6,43.75 53.8,-5.09 206.9,-58.88 186.7,-349.96 -20.2,-291.07 -220.4,-356.69 -220.4,-356.69 186.7,107.71 171.5,402.09 153.1,321.34 -18.6,-80.74 -94.2,-203.58 -69,-53.79 25.2,149.67 0,311.17 -48.8,385.18 z m -77.4,16.92 c -28.6,6.6 -112.7,-104.41 -132.9,-181.72 -9.9,-38.28 -29.6,-119.92 -39.1,-196.73 -10,-78.58 -9.7,-152.21 -6.3,-170.01 6.8,-35.36 85.9,-153.11 153.1,-94.23 67.3,58.87 129.6,208.55 131.2,366.74 1.7,158.19 -42,230.42 -106,275.95 z m 801.6,126.14 c -47,16.78 -720,-1.78 -799,-16.91 -79.2,-15.13 -126.2,-126.15 -126.2,-126.15 l -967.3,-154.76 -1699.1,-132.88 c 0,0 -62.3,105.92 -143,109.36 -80.8,3.3 -513.1,-53.79 -607.2,-77.44 -94.2,-23.53 -156.6,-48.71 -178.4,-131.24 -21.9,-82.4 -72.4,-720 -67.3,-824.27 5.1,-104.28 3.4,-190.11 92.5,-190.11 89.2,0 627.5,114.45 699.8,134.67 72.4,20.09 143,122.71 143,122.71 l 1717.6,250.64 938.7,178.41 c 0,0 18.6,-79.1 89.3,-92.58 70.5,-13.47 693,55.58 770.5,75.67 77.3,20.21 131.1,45.52 166.4,134.66 35.3,89.15 67.3,440.75 65.6,551.76 -1.7,111.02 -35.3,168.24 -95.9,188.46 z M 13317.9,2299.49 c 0,0 -772.2,-84.04 -869.8,-100.95 -97.5,-16.81 -467.6,-136.22 -484.5,-171.56 -16.8,-35.35 -57.1,-217.07 -18.4,-215.3 38.6,1.67 349.8,84.06 506.3,114.33 156.4,30.27 708.2,55.56 758.7,72.37 50.5,16.77 171.6,301.11 107.7,301.11 z m 1165.8,341.56 c 0,0 -281,-96.01 -351.6,-109.36 -70.7,-13.48 -405.4,-45.53 -439.1,-58.88 -33.7,-13.48 -138,-111.01 -183.4,-154.75 -45.3,-43.75 -220.3,-513.09 -191.7,-508.15 28.6,5.07 671.2,164.95 745.2,210.31 74,45.41 134.6,126.16 168.2,164.82 33.7,38.79 205.2,284.34 260.8,331.52 55.5,47.05 58.9,132.88 -8.4,124.49 z m 1061.5,144.59 c 0,0 -297.7,-37.01 -403.8,-52.14 -105.9,-15.13 -533.2,-156.41 -578.7,-203.59 -45.4,-47.05 -188.3,-230.42 -158.1,-233.73 30.3,-3.43 407.1,141.28 479.4,161.5 72.4,20.09 462.6,87.36 498,94.1 35.3,6.74 134.5,131.23 159.9,159.85 25.1,28.61 70.5,75.66 3.3,74.01 z m -4649.8,-612.29 c 112,-1.03 264.5,-21.24 380.9,-29.76 298.3,-21.61 324.7,-16.81 603.5,66.13 206,61.15 426.1,138.86 632.5,189.72 110.3,27.21 268.1,40.06 385.3,55.32 411.5,53.78 822.1,105.67 1233.6,158.57 131.1,16.78 379.6,97.28 513.7,135.68 162.3,46.42 332.8,98.05 496.1,137.85 89.3,21.74 219.7,29.24 313.7,40.31 230.6,26.95 472.6,59.89 702.9,78.33 41.1,3.3 28.4,2.92 60.5,2.29 -32.7,-6.61 -16.8,-3.82 -59.6,-10.17 -232.6,-35.1 -467.1,-67.27 -700.2,-98.94 -92.8,-12.59 -221.4,-22 -308.9,-44.76 -162.5,-42.34 -331.3,-96.14 -492.9,-144.58 -136.6,-40.95 -384.8,-124.63 -518.9,-143.32 -493.5,-69.05 -995.5,-133.14 -1490.8,-187.44 -136,-15 -263.5,-56.08 -394.6,-94.48 -179.1,-52.39 -473.6,-150.29 -650.4,-174.23 -115.3,-15.51 -584.8,34.98 -706.4,63.48 z m -996.83,-733.13 1.68,-0.46 -6.1,1.49 z m -8008.6,2359.67 c -2.04,0.13 -4.07,0.25 -6.11,0.25 -92.96,0 -155.77,-205.75 -140.51,-459.56 15.38,-253.95 103.12,-459.7 195.95,-459.7 92.96,0 155.78,205.75 140.52,459.7 -2.16,34.2 -5.47,67.65 -10.05,99.82 -40.56,79.35 -79.47,159.46 -118.77,239.32 -18.43,37.51 -38.53,78.97 -61.03,120.17 z m -72.36,114.96 c -8.52,1.77 -17.04,2.66 -25.56,2.66 -147,0 -246.57,-267.93 -222.28,-598.3 24.29,-330.5 163.15,-598.3 310.15,-598.3 147,0 246.57,267.8 222.28,598.3 -1.78,24.54 -4.32,48.7 -7.25,72.62 -4.32,8.13 -8.64,16.4 -12.84,24.66 l -4.83,9.29 c 3.3,-26.84 5.85,-54.56 7.62,-82.66 17.18,-277.86 -53.27,-503.06 -157.42,-503.06 -104.02,0 -202.32,225.2 -219.61,503.06 -17.04,276.2 52.52,500.39 155.64,502.93 -14.36,23.78 -29.63,47.05 -45.9,68.8 z m -206.51,158.06 c -0.89,-0.51 -1.78,-0.89 -2.68,-1.4 0.9,0.51 1.79,0.89 2.68,1.4 z m 49.85,18.69 0.88,0.26 v 0 z m -12.21,5.09 c 12.33,1.91 24.92,2.29 38.02,1.14 -8.65,-1.78 -16.91,-3.81 -24.93,-5.97 3.44,-1.27 6.87,-2.55 10.3,-3.95 32.05,-12.33 61.68,-29.12 88.89,-49.97 37.39,-28.61 70.2,-65.36 99.7,-106.18 v 0 l 0.25,-0.38 c 1.27,-1.65 2.42,-3.31 3.69,-5.09 l 0.13,-0.13 c 2.41,-3.56 4.83,-6.99 7.37,-10.55 l 0.13,-0.26 c 1.14,-1.77 2.29,-3.43 3.56,-5.21 l 0.26,-0.38 c 1.01,-1.66 2.16,-3.31 3.3,-4.96 l 0.38,-0.76 c 1.15,-1.53 2.17,-3.18 3.18,-4.84 l 0.38,-0.51 c 1.02,-1.52 2.04,-3.04 3.05,-4.57 l 1.15,-1.91 2.29,-3.56 1.14,-1.91 2.42,-3.68 1.4,-2.42 1.65,-2.54 1.91,-3.18 1.53,-2.55 1.78,-3.05 1.65,-2.55 c 10.17,-17.16 19.96,-34.45 29.37,-51.87 v 0 l 0.26,-0.26 1.65,-3.05 1.4,-2.67 1.78,-3.31 1.27,-2.54 1.4,-2.55 1.78,-3.43 1.65,-3.18 1.15,-2.16 1.9,-3.69 0.51,-0.76 2.17,-4.45 1.65,-3.05 1.4,-2.8 1.01,-1.91 1.91,-3.81 1.91,-3.56 1.65,-3.44 1.14,-2.16 1.53,-3.18 1.15,-2.03 1.4,-2.93 0.5,-1.02 2.68,-5.33 c 1.27,-2.55 2.54,-5.09 3.81,-7.64 l 1.15,-2.28 0.5,-1.02 v 0 c 6.23,-12.59 12.34,-25.05 18.32,-37.13 10.55,-21.49 21.1,-43.11 31.66,-64.6 v 0 l 1.14,-2.42 2.8,-5.46 1.27,-2.8 0.38,-0.64 0.64,-1.4 0.63,-1.4 0.39,-0.51 2.92,-6.22 0.76,-1.41 1.02,-2.16 0.38,-0.76 0.77,-1.4 0.38,-0.89 0.63,-1.27 0.26,-0.64 2.28,-4.58 0.26,-0.5 0.26,-0.64 0.5,-1.01 0.26,-0.52 1.65,-3.3 0.26,-0.51 0.63,-1.14 0.51,-1.28 1.15,-2.03 0.25,-0.64 0.51,-1.01 v 0 c 6.23,-12.59 12.46,-25.18 18.69,-37.77 v 0 l 3.31,-6.74 0.51,-1.02 0.63,-1.27 0.51,-1.02 0.51,-1.14 1.02,-1.78 2.03,-4.32 v 0 l 0.51,-0.89 0.38,-0.9 0.51,-0.89 0.64,-1.27 0.25,-0.63 1.02,-1.91 v 0 l 2.28,-4.58 0.39,-0.89 0.38,-0.63 0.25,-0.64 0.51,-0.89 0.51,-1.15 3.18,-6.23 v -0.12 l 0.64,-1.02 0.63,-1.52 0.51,-0.89 1.91,-3.69 c 11.32,-22.64 22.76,-45.15 34.33,-67.53 39.17,-75.66 79.99,-152.09 125.39,-223.94 27.21,-43.1 74.13,-114.44 119.66,-138.98 17.67,-9.54 50.74,-18.06 70.32,-23.91 48.45,-14.62 97.28,-28.48 146.11,-42.35 164.29,-46.41 329.23,-91.29 494.03,-136.06 487.8,-132.76 976.23,-263.23 1464.66,-393.44 723.57,-192.78 1447.52,-384.65 2171.56,-575.55 l 111.92,-29.48 -62.83,97.15 c -38.51,59.61 -73.12,145.35 -87.97,213.86 -29.9,137.99 -40.57,286.77 -49.6,427.54 -5.5,85.2 27.71,206.64 55.42,286.5 44.89,128.94 111.3,257.25 197.14,363.68 31.01,38.41 64.96,74.65 102.22,107.08 57.1,49.72 119.55,89.9 189.87,118.13 113.68,45.78 236.12,55.96 357.67,52.52 164.21,-4.58 333.82,-32.43 495.57,-59.9 266.94,-45.39 536.87,-119.27 751.66,-291.84 99.34,-79.73 180.84,-175.23 251.39,-281.02 106.32,-159.47 191.92,-333.3 268.72,-508.66 30.41,-69.05 59.14,-138.73 88.9,-208.03 18.91,-44.24 40.15,-96.03 65.62,-136.73 18.82,-30.22 35.44,-63.57 51.37,-95.47 21.33,-43.13 41.82,-86.62 62.41,-130.07 24.82,-52.68 49.46,-105.44 75.68,-157.32 16.9,-33.72 39.02,-78.85 62.82,-107.96 19.7,-24.17 69.3,-39.81 98.41,-48.99 55.18,-17.42 112.56,-31.25 169,-44.1 159.27,-36.51 321.47,-65.85 482.67,-91.79 114.6,-18.45 229.6,-35.12 344.8,-48.49 90.9,-10.52 184.9,-20.21 276.5,-21.98 117,-2.28 236.1,-4.7 352.8,7.13 78,7.87 153.9,22.35 230.1,40.8 105,25.33 209.3,56.86 312.5,88.62 121.6,37.4 242,77.08 362.3,118.52 67.4,23.15 135.6,47.55 204.6,65.76 42.9,11.18 86,19.7 129.8,26.18 74.9,11.31 150.9,18.95 226.3,25.7 76.1,6.76 152.5,12.35 228.6,17.56 50.4,3.45 100.8,6.24 150.9,10.29 19.8,1.54 41.1,5.97 60.6,9.78 31.7,6.24 63,13.23 94.6,20.36 83.7,19.09 167.2,39.67 250.4,61.05 80.6,20.87 161.2,42.33 241.1,65.85 30.9,9.18 61.8,18.45 92.3,28.74 20.2,6.89 42.4,14.48 61.6,24.03 41,20.49 84.6,39.07 126.7,57.47 64.9,28.13 130,55.7 195.1,82.8 60.1,24.92 120.5,49.74 181.1,73.63 43.1,17.19 86.8,34.6 130.7,49.6 21.8,7.36 46,12.71 68.3,17.93 37.6,8.52 75.4,16.25 113.2,23.77 99,19.71 198.4,38.02 297.5,56.59 101.8,19.08 203.6,38.02 304.9,59.01 38.8,8.14 77.9,16.4 116.4,25.94 24.8,6.23 52.9,13.1 76.6,23.02 44.9,18.81 97.5,59.63 135.7,89.9 58.3,46.15 114.7,95.88 169.5,146.24 51.5,47.3 102,95.88 150.9,145.73 35.2,36.11 72.9,75.02 103.8,114.95 30.1,39.04 69.2,91.43 55.2,143.82 -12,44.38 -63.2,78.08 -96.4,107.33 -57.9,50.87 -162.5,97.53 -247.7,128.18 15.7,27.47 33.8,55.31 51.8,76.43 9,10.42 20.1,19.7 30.6,28.48 15.7,13.23 31.4,26.2 46,40.69 45.5,44.89 76.3,96.39 99.4,155.65 67,171.8 103.2,389.12 93.9,573.76 -9.3,184.77 -24.8,451.31 -217.8,539.81 -47.2,21.62 -98.5,37.13 -148.8,49.47 -67.2,16.4 -136.4,27.84 -205,36.11 -31.3,3.81 -63.2,7.25 -94.6,9.16 -572.5,76.8 -1146.3,144.58 -1720.7,205.62 -358.3,38.02 -716.7,72.61 -1075.3,107.33 -262.3,25.3 -524.5,53.79 -786.6,82.01 -200.9,21.75 -401.8,43.62 -602.8,66 -70.9,8.01 -141.7,15.9 -212.6,24.04 -34.9,4.07 -70.4,7.75 -105.1,12.71 -37.9,5.34 -81.5,5.34 -119.8,5.6 -56,0.38 -112.1,-0.51 -168.1,-1.66 -57.4,-1.26 -114.6,-2.79 -172,-4.44 -37.1,-1.02 -74.6,-2.42 -111.7,-2.42 -81,0 -202.1,0.64 -265.9,58.87 -70.6,64.48 -139.5,132.25 -208.7,198.25 -124.63,118.9 -250,236.78 -376.53,353.39 -70.98,65.36 -142.93,129.71 -215.3,193.41 -170.78,150.44 -344.21,298.84 -519.18,444.57 -33.95,57.6 -157.46,116.23 -202.45,136.95 -114.47,52.78 -253.81,73.5 -378.06,88.38 -98.46,11.7 -197.51,19.97 -296.29,27.72 -133.66,10.43 -267.32,19.71 -401.08,29.25 -218.32,15.52 -437.07,27.85 -655.67,38.66 -268.07,13.22 -536.23,23.78 -804.43,31.03 -201.28,5.34 -402.61,8.9 -603.89,9.41 -181.59,0.51 -363.54,-1.27 -545.03,-8.4 -359.35,-14.11 -722.03,-39.42 -1078.85,-84.43 -140.26,-17.68 -281.16,-38.66 -419.77,-66.89 -96.39,-19.71 -201.42,-43.87 -292.86,-80.75 -43.1,-17.29 -85.32,-39.29 -125.88,-61.93 -51.25,-28.61 -101.48,-59.38 -151.08,-90.92 -116.86,-74.52 -231.05,-154.25 -343.47,-235.25 -112.66,-81.26 -223.93,-164.42 -333.92,-249.12 -81.26,-62.43 -162.27,-125.63 -241.62,-190.61 -207.91,-170.02 -331.89,-242.5 -603.51,-259.03 -214.53,-13.1 -429.31,-29 -643.323,-47.69 -146.24,-12.84 -293.238,-26.83 -438.843,-45.91 -55.315,-7.24 -111.011,-15.13 -165.82,-25.81 -33.444,-6.48 -76.17,-15.01 -107.198,-29.38 C -11.5082,5343.27 -3.88035,5081.44 3.49468,4966.48 c 3.94401,-61.8 11.06612,-123.73 21.10992,-184.76 8.1391,-48.96 18.1847,-99.57 32.8092,-147 17.166,-55.83 40.5663,-111.4 64.7252,-164.42 29.375,-64.35 61.674,-127.43 95.883,-189.22 33.062,-59.39 68.158,-118.01 106.182,-174.47 32.044,-47.82 67.394,-96.26 106.562,-138.61 38.912,-41.84 100.712,-79.22 150.305,-107.33 68.67,-39.04 140.642,-73.88 212.492,-106.69 135.048,-61.67 275.567,-119.53 414.937,-170.91 l 108.47,-40.05 -53.03,102.62 c -27.72,53.79 -54.81,108.21 -80.75,162.9 -19.33,40.44 -39.42,82.91 -55.06,124.87 -12.72,34.59 -16.66,80.37 -14.5,116.99 2.8,47.94 17.42,120.93 76.81,125.51 106.94,8.27 239.2,-15.51 342.32,-42.98 39.17,-10.3 77.95,-22.38 115.98,-36.24 z m -3.82,-0.51 c 1.27,0.25 2.54,0.38 3.82,0.51 v 0.12 c -1.28,-0.25 -2.55,-0.5 -3.82,-0.63 z m -31.54,-9.03 c 2.16,0.76 4.33,1.65 6.49,2.42 -2.16,-0.77 -4.33,-1.66 -6.49,-2.42 z m -7.62,-3.3 c 2.03,0.88 4.19,1.9 6.35,2.67 -2.16,-0.77 -4.32,-1.79 -6.35,-2.67 z m -15.01,-7.76 c 1.9,1.14 3.94,2.29 5.98,3.31 -2.04,-1.02 -4.08,-2.17 -5.98,-3.31 z m -7.38,-4.45 c 1.91,1.27 3.82,2.42 5.86,3.56 -2.04,-1.14 -3.95,-2.29 -5.86,-3.56 z m -219.6,-529.26 c 0.25,2.93 0.38,5.73 0.63,8.65 17.68,203.33 94.35,441.64 218.85,520.61 -20.48,6.48 -41.2,12.46 -61.93,17.93 -99.57,26.57 -224.31,49.47 -327.32,41.58 -28.23,-2.16 -34.46,-63.2 -35.6,-83.29 -1.78,-30.65 1.14,-70.07 11.82,-98.93 15.39,-41.33 34.59,-81.39 53.41,-121.07 25.82,-54.29 52.65,-108.21 80.11,-161.62 L 1364.27,3549 c -0.12,-2.17 -0.38,-4.33 -0.5,-6.62 z m -0.89,-10.55 c 0.25,2.16 0.38,4.45 0.5,6.74 -0.12,-2.29 -0.25,-4.58 -0.5,-6.74 z m -0.64,-10.43 c 0.12,1.91 0.25,3.95 0.38,5.98 -0.13,-2.03 -0.26,-4.07 -0.38,-5.98 z m -0.38,-4.7 -0.13,-2.29 v 0 z m 3843.15,2890.04 c 0,0 -1046.32,-3.43 -1281.83,-37.01 -235.51,-33.7 -1251.67,-753.69 -1251.67,-753.69 l 1608.24,23.52 c 0,0 16.91,63.97 104.4,80.75 87.36,16.91 652.6,16.91 652.6,16.91 26.96,208.55 168.26,669.52 168.26,669.52 z M 14043.1,4511.75 c 0,0 728.4,52.14 953.8,65.62 225.5,13.48 972.5,-13.48 972.5,-13.48 0,0 -70.8,10.17 -265.9,37 -195.1,26.96 -2207.1,296.17 -2274.5,302.91 -67.2,6.61 -649.3,0 -760.3,3.3 -111,3.31 -1598.2,215.29 -1911,240.59 -312.9,25.18 -1162.54,70.58 -1162.54,70.58 0,0 2355.24,-275.82 2880.14,-370.04 524.8,-94.23 1567.8,-336.48 1567.8,-336.48 z M 15052.5,3421.7 c 0,0 13.5,-50.48 79.1,-50.48 65.5,0 681.2,47.05 778.9,68.92 97.5,21.88 183.4,87.49 156.4,42.09 -27,-45.39 -139.6,-124.49 -158.2,-163.15 -18.4,-38.78 -85.7,-65.61 -85.7,-65.61 0,0 48.7,67.27 -28.6,84.05 -77.4,16.79 -752.1,-72.36 -777.2,-52.13 -25.2,20.22 35.3,136.31 35.3,136.31 z m -967.3,-166.58 c 0,0 -79.1,-220.37 -53.8,-220.37 25.2,0 714.9,181.71 748.6,200.15 33.6,18.57 275.8,220.38 240.5,218.73 -35.3,-1.66 -930.2,-176.63 -930.2,-176.63 l -1694.1,-233.86 c 0,0 -52.1,-84.05 -106,-116.1 -53.8,-31.92 -677.9,-173.2 -738.5,-179.94 -60.5,-6.73 -106,-8.52 -121.2,35.23 -15.1,43.74 0,222.15 0,222.15 0,0 54,652.73 58.9,741.87 5.1,89.15 42.1,211.99 102.6,222.03 60.7,10.05 548.5,117.76 696.5,124.5 148,6.73 168.2,-117.76 218.7,-117.76 50.5,0 1497.2,100.97 1658.8,117.76 161.4,16.78 931.9,164.8 931.9,164.8 0,0 23.6,63.96 84.1,114.45 60.6,50.48 141.4,30.26 366.7,30.26 225.5,0 528.3,23.53 588.9,-37.01 60.5,-60.53 40.3,-501.27 40.3,-501.27 23.6,94.23 40.5,349.82 3.4,501.27 -36.9,151.46 -117.7,232.2 -117.7,232.2 0,0 70.6,-77.44 -20.2,-80.74 -91,-3.44 -821,20.09 -881.5,10.04 -60.7,-10.04 -972.4,-57.22 -999.2,-94.22 -27,-37.01 3.3,-319.56 3.3,-319.56 0,0 -37.1,285.98 -107.8,296.03 -70.6,10.05 -1530.8,-111.01 -1668.8,-134.54 -137.9,-23.52 -733.4,-158.19 -800.7,-131.23 -67.3,26.96 -117.7,134.54 -107.7,-10.17 10.2,-144.59 -80.7,-1460.1 -127.8,-1530.8 -47.1,-70.7 -228.8,-141.28 -228.8,-141.28 0,0 238.8,53.79 306.1,107.58 67.4,53.92 94.3,94.23 228.9,121.19 134.6,26.96 649.3,171.54 649.3,171.54 0,0 -13.5,-87.49 37,-87.49 50.5,0 1574.7,195.2 1615,248.99 40.4,53.92 124.5,232.2 124.5,232.2 z m -1800,-77.44 c 0,0 -26.9,-139.63 -107.7,-159.85 -80.8,-20.09 -427.3,-99.18 -535,-100.83 -107.5,-1.79 -124.5,45.39 -124.5,45.39 0,0 27,-35.35 121.2,-35.35 94.2,0 506.3,89.14 548.5,112.67 41.9,23.65 97.5,137.97 97.5,137.97 z m -587.1,629.2 c 0,0 57.2,-5.08 35.3,20.22 -21.8,25.18 -77.4,31.92 -77.4,31.92 0,0 60.5,6.74 116.1,-28.61 55.6,-35.35 89.1,-109.36 101,-232.08 11.6,-122.83 0,-336.47 -80.8,-499.75 -80.7,-163.14 -169.9,-149.67 -169.9,-149.67 60.6,10.05 148,137.98 183.4,248.99 35.2,111.01 42,383.52 30.2,255.73 -11.8,-127.94 -87.4,-294.39 -67.2,-227.12 20.1,67.27 53.8,205.24 25.2,353.26 -28.7,148.02 -95.9,227.11 -95.9,227.11 z m 4190.3,-568.67 c 0,0 58.8,-40.44 16.8,-40.44 -42,0 -837.8,-97.53 -884.8,-97.53 -47.2,0 -989.3,-259.04 -1154,-285.99 -165,-26.96 -1127.3,-131.24 -1423.3,-171.55 -296.2,-40.44 -953.8,-218.72 -1046.4,-230.55 -92.5,-11.69 -242.2,5.09 -333.1,-3.3 -90.9,-8.39 -173.2,-124.49 -200.1,-217.06 -26.9,-92.44 -20.2,-543.39 10,-602.26 30.3,-58.87 126.2,-99.2 319.6,-107.58 193.6,-8.52 313,37.02 627.6,97.52 266.6,51.42 760.5,111.4 904.8,128.44 12.9,1.68 26.1,3.22 39.6,4.71 l 0.9,0.14 v 0 c 193.9,21.61 431.1,34.32 501.4,39.91 84.2,6.75 689.7,158.2 783.9,205.24 94.3,47.18 511.5,222.19 639.3,265.92 127.8,43.74 861.3,158.06 974.1,205.24 112.7,47.05 455.9,371.7 541.7,482.71 85.7,111.01 48.7,116.1 -35.4,190.11 -84.1,74.01 -282.6,136.32 -282.6,136.32 z M 1605.12,4069.85 c -0.64,-0.37 -1.27,-0.76 -1.91,-1.14 0.64,0.38 1.27,0.77 1.91,1.14 z m 3.18,1.66 c -0.77,-0.38 -1.4,-0.76 -2.16,-1.14 0.76,0.38 1.39,0.76 2.16,1.14 z m 28.49,23.02 c 2.53,0.5 4.95,1.01 7.37,1.52 -2.42,-0.51 -4.84,-1.02 -7.37,-1.52 z m -7.89,-2.04 c 2.41,0.64 4.7,1.27 7.12,1.78 -2.42,-0.51 -4.71,-1.14 -7.12,-1.78 z m -7.88,-2.54 c 2.28,0.76 4.57,1.53 6.86,2.16 -2.29,-0.63 -4.58,-1.4 -6.86,-2.16 z m -22.89,-9.79 c 2.03,1.02 4.06,2.03 6.1,3.05 -2.04,-1.02 -4.07,-2.03 -6.1,-3.05 z M 13667.6,1750.67 c -76.9,-19.75 -154.2,-38.66 -231.6,-56.21 -31.9,-7.27 -63.8,-14.26 -95.8,-20.64 -21.7,-4.28 -43.5,-8.75 -65.7,-10.52 -50.4,-4.1 -100.9,-6.89 -151.4,-10.29 -75.9,-5.13 -151.8,-10.81 -227.8,-17.56 -74.6,-6.61 -149.4,-14.11 -223.5,-25.34 -42.1,-6.19 -84,-14.34 -125,-25.14 -68.3,-17.93 -135,-41.96 -201.6,-64.88 -120.5,-41.45 -241.7,-81.36 -363.5,-118.9 -104.4,-32.18 -209.1,-63.7 -315.3,-89.37 -77.8,-18.81 -156.4,-33.85 -236.1,-41.86 -119,-12.07 -238.9,-9.64 -358.3,-7.36 -93.8,1.91 -187.5,11.55 -280.6,22.4 -116,13.46 -231.6,30.13 -346.8,48.67 -162.6,26.22 -325,55.6 -485.63,92.35 -4.28,0.88 -8.61,1.91 -12.8,2.93 -72.89,-392.46 -330.01,-775.087 -692.66,-953.363 -154.15,-75.91 -327.49,-120.805 -499.53,-121.97 202.31,39.306 335.46,61.427 519.09,165.982 326.05,185.633 556.71,548.841 619.91,915.171 0.38,2.15 0.79,4.33 1.17,6.48 -36.14,8.89 -72.1,18.58 -107.58,29.76 -40.33,12.71 -92.45,30.03 -119.79,63.47 -27.33,33.67 -48.57,77.31 -68.04,116.11 -26.31,52.39 -51.13,105.39 -76.19,158.29 -20.44,43.27 -40.79,86.48 -62.03,129.33 -15.41,31.02 -30.92,62.31 -49.23,91.7 -27.85,44.38 -48.2,94.73 -68.78,142.79 -29.76,69.18 -58.5,138.74 -88.77,207.66 -75.91,173.2 -159.97,344.36 -264.99,501.92 -67.81,101.6 -146.65,194.18 -242.12,270.86 -208.18,167.34 -472.42,238.56 -731.08,282.56 -161.23,27.46 -325.68,54.68 -489.33,59.25 -114.94,3.31 -232.06,-5.85 -339.78,-49.21 -65.34,-26.33 -123.84,-64.09 -177.02,-110.38 -35.21,-30.77 -67.53,-64.98 -96.87,-101.47 -82.8,-102.63 -146.37,-225.85 -189.59,-350.21 -26.08,-75.03 -58.12,-189.61 -53.05,-268.95 9.04,-140.01 18.96,-283.45 48.72,-420.8 13.97,-64.73 45.87,-143.44 81.87,-199.14 l 125.37,-194.29 -223.64,59 c -724.23,190.85 -1448.04,382.77 -2171.71,575.54 -488.57,130.22 -977,260.69 -1464.93,393.45 -87.11,23.65 -174.21,47.43 -261.32,71.46 -31.28,-142.42 -88.12,-360.63 -196.85,-455.49 -173.58,-151.58 -607.84,-153.36 -819.31,-59.64 -58.24,25.68 -47.56,22.12 -92.83,61.54 l 44.51,-25.56 c 206,-101.35 670.27,-97.92 838.89,56.21 96.65,88.25 147.89,306.97 173.96,437.19 -60.53,16.65 -121.06,33.57 -181.46,50.61 -49.09,13.86 -98.04,27.72 -146.87,42.47 -25.56,7.63 -55.32,14.88 -78.59,27.47 -54.81,29.37 -103.38,102.36 -136.32,154.37 -35.99,56.97 -68.66,115.85 -100.2,175.36 1.52,-14.88 2.92,-30.01 4.07,-45.27 25.42,-350.08 -79.23,-633.9 -233.99,-633.9 -154.63,0 -300.87,283.82 -326.3,633.9 -25.56,349.58 78.85,633.15 233.22,633.91 -16.4,18.32 -33.95,34.97 -52.52,49.22 -23.78,18.18 -49.72,32.93 -77.69,43.73 -18.83,7.26 -37.64,14.12 -56.72,20.36 -36.24,-21.24 -67.65,-54.18 -100.97,-108.73 -107.45,-176.51 -137.33,-456.01 -117.75,-706.9 25.94,-253.18 111.14,-498.23 111.14,-498.23 0,0 -834.445,-26.96 309.52,-403.74 C 2945.17,1971.93 6982.59,787.663 8113.07,410.853 9243.59,33.9517 10710.5,-60.1699 11531.5,33.9517 c 821,94.2123 4454.7,928.6793 3620.2,1157.4383 -834.4,228.76 -2045.7,248.97 -2045.7,248.97 0,0 447.5,131.61 561.6,310.31 v 0" /></g></g></g></svg>