<?xml version="1.0" encoding="UTF-8" standalone="no"?>
<svg
   xmlns:dc="http://purl.org/dc/elements/1.1/"
   xmlns:cc="http://creativecommons.org/ns#"
   xmlns:rdf="http://www.w3.org/1999/02/22-rdf-syntax-ns#"
   xmlns:svg="http://www.w3.org/2000/svg"
   xmlns="http://www.w3.org/2000/svg"
   viewBox="0 0 5333.3335 5333.3335"
   height="5333.3335"
   width="5333.3335"
   xml:space="preserve"
   id="svg2"
   version="1.1"><metadata
     id="metadata8"><rdf:RDF><cc:Work
         rdf:about=""><dc:format>image/svg+xml</dc:format><dc:type
           rdf:resource="http://purl.org/dc/dcmitype/StillImage" /></cc:Work></rdf:RDF></metadata><defs
     id="defs6" /><g
     transform="matrix(1.3333333,0,0,-1.3333333,0,5333.3333)"
     id="g10"><g
       transform="scale(0.1)"
       id="g12"><g
         transform="scale(2.45399)"
         id="g14"><path
           id="path16"
           style="fill:#5d6266;fill-opacity:1;fill-rule:evenodd;stroke:none"
           d="M 0,0 H 16300 V 16300 H 0 V 0" /></g><g
         transform="scale(2.37915)"
         id="g18"><path
           id="path20"
           style="fill:#000000;fill-opacity:1;fill-rule:evenodd;stroke:none"
           d="m 4113.72,4478.9 2519.94,364.97 -2175.73,20.59 c 0,0 -61.95,-178.93 -344.21,-385.56 z M 15570.2,6974.75 c 0,0 55.1,-488.83 37.9,-936.34 -17.3,-447.51 -51.6,-764.18 -110.2,-953.53 0,0 802.1,-48.26 -196.2,-323.61 -998.3,-275.43 -2065.4,-475.12 -2065.4,-475.12 0,0 488.8,-130.85 6.8,-178.97 -481.9,-48.26 -11429,-137.74 -11759.38,-75.79 -330.52,61.96 771.1,199.69 771.1,199.69 0,0 -654.1,130.85 -984.61,936.39 -330.393,805.54 -172.05,1611.08 227.21,2086.12 399.37,475 8351.46,853.79 9108.78,1087.78 757.4,234.12 1748.8,358.03 2161.9,371.86 413.1,13.7 2189.4,-123.91 2189.4,-123.91 0,0 406.3,-247.95 420,-296.07 13.8,-48.26 172.1,-447.52 172.1,-447.52 l 20.6,-870.98" /></g><g
         transform="scale(1.52238)"
         id="g22"><path
           id="path24"
           style="fill:#000000;fill-opacity:1;fill-rule:evenodd;stroke:none"
           d="m 5676.62,14845 c -81.36,30 -183.96,66 -258.62,108.4 -114.7,65.2 -183.03,273 -193.65,400 -7.63,92.9 25.32,310.2 72.24,389.1 75.6,127.4 484.31,341.5 631.59,396.8 178.56,67.2 555.05,160.7 702.36,-4.2 68.51,-76.8 102.01,-209 120.27,-309.4 7.23,-40.2 -2.43,-77.4 -28.11,-109.1 -190.31,-233.3 -375.95,-470.3 -557.68,-710.3 -16.94,-22.3 -37.23,-37 -63.67,-46.2 -111.35,-37.9 -222.51,-76.7 -333.48,-115.8 -30.73,-10.8 -60.52,-10.6 -91.25,0.7 v 0" /></g><g
         transform="scale(2.28599)"
         id="g26"><path
           id="path28"
           style="fill:#000000;fill-opacity:1;fill-rule:evenodd;stroke:none"
           d="m 3979.43,10123.6 c 245.27,323 501.6,639.7 773.51,940.5 198.65,219.7 407.48,433.3 629.8,629.2 241.29,212.6 524.01,428.5 821.65,557.1 150,64.9 311.11,108.5 473.67,127 61.63,6.9 133.68,12.3 196.89,8.4 80.1,11 160.72,20.6 241.08,29.9 220.6,25.7 441.69,47.9 662.78,67.4 719.68,63.5 1444.09,100 2166.54,103.9 668.95,3.5 1339.15,-7.7 2007.45,-39 248.2,-11.5 499.6,-24.3 747.3,-45.9 401.9,32.8 769.4,-160.8 1093.4,-378.2 353.9,-237.4 573.8,-519.5 825.4,-853.5 92.9,-123.2 179.1,-253.8 263,-383.3 84,-129.5 166,-260.3 248.8,-390.7 29.8,-47 59.8,-94.1 90.9,-140.3 13,-19.4 31.5,-48.9 47.2,-65.8 11.8,-12.5 27.4,-25.1 40.6,-36.2 26.1,-22.1 52.7,-43.5 79.2,-65 71.4,-57.8 143.2,-115.1 213.6,-174.2 62.3,-52.32 124.4,-105.86 182.8,-162.42 45.1,-43.53 97.7,-97.2 129.5,-151.4 61.4,-104.64 91.4,-322.4 108,-443.92 13,-95.11 23.6,-190.34 33.7,-285.83 3.7,-34.74 7.3,-69.43 11.4,-104.16 2,-16.62 3.6,-35.96 7.2,-52.32 4.6,-21.21 19.5,-52.58 28.3,-72.66 20.2,-46.5 40.9,-92.78 60,-139.76 53.1,-130.32 95,-264.48 112.4,-404.51 16.7,-135.25 19.6,-279.22 21.8,-415.48 2.7,-181.33 1.6,-363.96 -3.2,-545.24 -1.3,-42.17 -16.3,-576.86 -57.7,-585.17 -41.4,-8.31 -96.2,512.38 -113.6,550.92 l -20.2,44.75 c -5.6,12.43 -7.9,24.06 -7.8,37.58 1.6,172.4 -1.3,345.97 -14.3,517.98 -8.7,113.08 -21.7,229.13 -46,339.98 -13.1,59.8 -31.7,128.96 -60.6,183.29 -4.3,8.05 -15.8,27.52 -26.3,39.07 -27.3,-31.63 -62,-111.47 -72.5,-137.89 -41.1,-102.32 -72.1,-213.16 -97.8,-320.3 -13.1,-55.29 -25.1,-111.11 -35.7,-167.14 -38.5,-204.12 -70.4,-411.34 -103,-616.67 -35,-220.21 -69.2,-440.55 -103,-661.03 27.2,-22.7 50.4,-50.87 61.4,-82.11 14.9,-42.03 24.7,-98.68 33.1,-142.95 8.3,-43.66 21.3,-104.9 21.3,-148.82 0,-55.91 -49.2,-119.65 -83.2,-161.46 -28.1,-34.48 -81.1,-96.72 -121.9,-113.83 -20.9,-8.53 -49.8,-13.38 -72,-17.72 -39.7,-7.69 -79.8,-14.87 -119.8,-22.3 -135.7,-25.2 -271,-51.97 -405.9,-81.24 -383.1,-83.07 -765.7,-168.15 -1148.4,-252.97 -47.8,-10.55 -95.2,19.33 -106.5,66.84 -88.4,373.97 -174.4,748.82 -257.4,1123.93 -45.2,203.37 -89.5,407 -131,611.07 -29.1,142.61 -60.1,290.68 -79,434.91 -23.8,181.76 -63.7,386.13 -133.3,556.26 -17.7,43.65 -89,200.26 -149.7,198.77 -7.9,-0.13 -15.7,-1.01 -23.4,-2.36 -187.6,-34.25 -316.4,-483.73 -358.3,-631.19 -36.4,-127.96 -63.1,-262.38 -88.1,-392.96 -32.2,-169.6 -60.6,-339.98 -87.4,-510.63 -35.9,-228.66 -68.7,-458.05 -99.3,-687.58 -17.5,-131.54 -36.1,-265.22 -49.2,-397.29 -7.1,-71.92 -2.3,-141.6 9.1,-212.77 7.8,-49.35 24.5,-113.48 22.6,-162.34 -3.3,-90.99 -22.1,-206.83 -122.8,-238.8 -31.8,-10.2 -112.6,-10.41 -147,-11.81 -98.5,-4.07 -197.1,-7.18 -295.5,-10.15 -291.5,-8.66 -583.2,-15.88 -874.7,-22.57 -276.2,-6.3 -552.3,-12.16 -828.62,-17.11 -99.03,-1.75 -198.12,-3.45 -297.2,-4.59 -52.71,-0.61 -106.38,-1.84 -159.1,-0.75 -142.21,3.37 -322.79,68.46 -452.49,136.53 -703.33,-2.71 -1406.79,-3.11 -2110.11,-0.87 -443.53,1.35 -887.23,3.5 -1330.63,9.93 -92.52,1.35 -185.17,2.62 -277.65,3.71 -527.73,6.57 -1055.5,10.28 -1583.24,12.03 -178.93,0.62 -357.99,1.01 -537.05,0.88 -74.89,0 -152.52,1.71 -227.17,-0.88 -12.65,-3.85 -47.24,-30.75 -57.91,-38.45 -45.5,-32.59 -90.64,-58.53 -146.94,-67.93 -27.03,-4.46 -60.51,-3.72 -87.91,-3.59 -46.01,0.35 -92.01,1.71 -138.02,3.32 -125.61,4.25 -251.22,10.55 -376.71,17.11 -196.17,10.19 -392.09,22.7 -588.26,33.6 -87.79,4.85 -161.94,85.95 -177.2,169.77 -8.8,48.25 -0.12,124.98 3.6,174.98 2.98,38.8 9.05,89.89 6.45,128.21 -18.98,273.93 -33.36,551.05 -40.55,825.6 -2.73,103.8 -4.71,222.7 12.03,325.63 8.06,49.48 19.47,80.23 38.31,125.37 0.75,1.97 1.61,3.94 2.36,5.95 11.41,30.23 16.87,89.5 21.08,122.01 13.39,103.28 26.29,206.47 41.42,309.62 39.68,271.43 50.84,502.8 163.3,759.63 59.4,136.04 120.41,268.33 185.01,401.75 7.07,14.65 12.16,32.63 16.99,48.25 9.55,31.01 19.35,61.24 31.13,91.51 42.4,108.14 105.02,209.19 172.48,303.28 219.11,305.69 550.56,554.07 895.53,699.87 141.61,59.8 286.2,114.57 430.41,168.03 214.4,79.48 430.41,156.5 646.79,230.7 v 0" /></g><g
         transform="scale(2.27511)"
         id="g30"><path
           id="path32"
           style="fill:#062e78;fill-opacity:1;fill-rule:evenodd;stroke:none"
           d="m 4053.54,10095.7 c 0,0 -724.39,-247.43 -1102.41,-407.29 -378.02,-159.73 -679.54,-418.35 -861.69,-672.67 -182.29,-254.19 -180.04,-362.18 -213.8,-431.98 -33.77,-69.76 -74.26,-148.52 -184.53,-400.42 -110.26,-252.08 -116.99,-463.5 -157.48,-740.36 -40.5,-276.69 -47.23,-398.18 -67.53,-452.15 -20.19,-54.07 -56.19,-83.21 -47.22,-425.21 8.96,-342.01 36,-760.54 40.49,-825.81 4.48,-65.18 -20.19,-245.22 -11.22,-294.67 8.98,-49.58 53.95,-94.59 94.45,-96.83 40.49,-2.24 1082.22,-67.38 1176.78,-51.69 94.44,15.69 150.76,105.76 215.92,108.04 65.29,2.24 1406.3,2.24 2643.77,-15.82 1237.43,-17.98 3478.38,-9.01 3478.38,-9.01 0,0 240.74,-132.66 434.22,-137.14 193.49,-4.62 2535.73,47.21 2585.23,62.9 49.5,15.82 58.4,96.79 60.7,157.49 2.2,60.78 -49.5,200.21 -31.5,382.48 18,182.28 189,1523.18 328.5,2013.71 139.5,490.52 283.4,697.46 467.9,701.94 184.6,4.48 319.5,-407.15 375.8,-836.88 56.2,-429.74 468,-2171.19 468,-2171.19 0,0 812.2,179.95 1154.3,254.18 342,74.28 557.9,105.8 584.9,117.01 27.1,11.21 150.8,153 150.8,193.48 0,40.48 -36,225 -49.5,263.29 -13.6,38.24 -74.2,69.75 -74.2,69.75 0,0 155.2,1021.4 215.9,1343.14 60.8,321.83 181.1,713.29 293.6,708.81 112.5,-4.49 248.6,-274.5 239.6,-1183.51 l 20.2,-45.01 c 0,0 18.1,661.47 -17.9,951.78 -36,290.19 -182.3,528.68 -200.3,612.02 -18,83.2 -58.5,706.42 -150.7,863.91 -92.2,157.49 -567,501.71 -636.8,576.01 -69.6,74.2 -418.4,672.7 -659.2,992.1 -240.7,319.6 -452.2,598.6 -807.8,837 -355.4,238.5 -692.8,396 -1048.4,364.5 0,0 -1080,94.6 -2767.39,85.6 -1687.48,-9.1 -3082.45,-202.6 -3082.45,-202.6 0,0 -292.42,22.6 -641.15,-128.2 C 5921.08,12075.6 5219,11634.7 4053.54,10095.7 v 0" /></g><g
         transform="scale(2.18247)"
         id="g34"><path
           id="path36"
           style="fill:#032461;fill-opacity:1;fill-rule:evenodd;stroke:none"
           d="m 14296.6,5930.45 c 20.8,-89.08 33.2,-141.59 33.2,-141.59 0,0 846.7,187.59 1203.3,264.98 356.5,77.43 581.6,110.29 609.7,121.97 28.3,11.69 157.2,159.5 157.2,201.7 0,10.13 -2.2,29.09 -5.7,52.33 l -1997.7,-499.39" /></g><g
         transform="scale(2.22911)"
         id="g38"><path
           id="path40"
           style="fill:#032461;fill-opacity:1;fill-rule:evenodd;stroke:none"
           d="m 16300,9720.38 c -16.8,78.33 -36.2,143.55 -58.6,181.82 -24.7,41.99 -75.9,97.03 -139.5,156.8 -436,18.1 -1148.7,38.4 -1516.4,-8.9 -514.3,-66.12 -911.1,14.6 -1293.2,-168.98 -382.1,-183.75 -1484.4,-734.91 -1484.4,-734.91 l 14.8,-88.11 c 0,0 1138.8,455.61 2461.6,595.12 1142.2,120.54 1785.7,87.75 2015.7,67.16 v 0" /></g><g
         transform="scale(2.22175)"
         id="g42"><path
           id="path44"
           style="fill:#1448ab;fill-opacity:1;fill-rule:evenodd;stroke:none"
           d="m 4150.88,10338.2 c 0,0 -741.78,-253.4 -1128.88,-417.12 -387.1,-163.57 -695.85,-428.4 -882.39,-688.83 -54.6,-76.02 -93,-139.3 -120.82,-192.5 2.05,-1.44 4.08,-2.57 5.87,-3.33 88.55,-36.87 1550.17,-254.31 1550.17,-254.31 l 221.11,-51.67 4670.66,-7.38 368.58,81.15 c 0,0 2764.82,99.52 3091.02,339.1 0,0 545.6,324.48 1408.2,512.39 862.6,188.1 1526.2,261.82 2001.7,302.29 467.3,39.92 852.6,-5.63 963.9,-31.78 -1.7,3.06 -3.2,5.98 -4.9,8.78 -94.4,161.31 -580.6,513.81 -652.1,589.81 -71.3,76.1 -428.4,688.9 -675,1016 -246.5,327.3 -463,612.9 -827.2,857.1 -363.9,244.2 -709.4,405.5 -1073.6,373.2 0,0 -1105.9,96.8 -2833.8,87.7 -1728.01,-9.4 -3156.47,-207.5 -3156.47,-207.5 0,0 -299.45,23.1 -656.55,-131.3 -357.11,-154.4 -1076.05,-605.9 -2269.5,-2181.8 v 0" /></g><g
         transform="scale(1.50598)"
         id="g46"><path
           id="path48"
           style="fill:#1a1a1a;fill-opacity:1;fill-rule:evenodd;stroke:none"
           d="m 5785.5,15134.1 c -78.68,29.2 -194.06,73.6 -241.31,100.3 -74.72,42.6 -122.34,236.2 -127.42,297.5 -5.09,61.1 22.02,258.4 54.39,312.6 32.38,54.4 343.33,258.4 569.38,343.3 226.06,85.1 489.39,112.2 560.73,32.4 48.21,-53.9 76.04,-173.7 89.38,-246.4 -180.3,-221 -369.09,-461 -566.91,-722 0,0 -136.47,-46.7 -338.24,-117.7 v 0" /></g><g
         transform="scale(1.50598)"
         id="g50"><path
           id="path52"
           style="fill:#282828;fill-opacity:1;fill-rule:evenodd;stroke:none"
           d="m 5417.52,15524.7 c -0.38,2.6 -0.57,4.9 -0.75,7.2 -5.09,61.1 22.02,258.4 54.39,312.6 32.38,54.4 343.33,258.4 569.38,343.3 226.06,85.1 489.39,112.2 560.73,32.4 48.21,-53.9 76.04,-173.7 89.38,-246.4 -125.14,-153.4 -254.27,-315.8 -387.72,-488.1 -32,-10.9 -51.76,-16.7 -51.76,-16.7 0,0 -681.19,-1.5 -833.65,55.7 v 0" /></g><g
         transform="scale(1.50151)"
         id="g54"><path
           id="path56"
           style="fill:#0d0d0d;fill-opacity:1;fill-rule:evenodd;stroke:none"
           d="m 6629.62,16257.9 c 42.87,-57.9 68.51,-168.2 80.96,-236.6 -145.9,-178.7 -297.31,-369.9 -454.58,-574.8 3.78,95.7 -1.69,338.9 30.97,418 35.68,86.9 257.5,435.5 342.65,393.4 v 0" /></g><g
         transform="scale(1.50598)"
         id="g58"><path
           id="path60"
           style="fill:#363636;fill-opacity:1;fill-rule:evenodd;stroke:none"
           d="m 6619.72,16195.2 c 1.13,-2.1 2.44,-4.2 3.57,-6.3 -1.13,2.1 -2.44,4.2 -3.57,6.3 z m -3.77,5.8 c 1.13,-1.9 2.44,-3.8 3.57,-5.6 -1.13,1.8 -2.44,3.7 -3.57,5.6 z m -1.88,2.8 c 0.56,-0.7 1.12,-1.7 1.69,-2.6 -0.57,0.9 -1.13,1.9 -1.69,2.6 z m -1142.91,-359.3 c 32.38,54.4 343.33,258.4 569.38,343.3 226.06,85.1 489.39,112.2 560.73,32.4 4.33,-4.9 8.66,-10.4 12.61,-16.2 -1.32,1.9 -2.64,3.8 -3.95,5.6 -84.33,41.9 -303.24,-301.3 -341.07,-390.5 -114.25,-0.4 -796.2,-1 -797.7,25.4 v 0" /></g><g
         transform="scale(1.43044)"
         id="g62"><path
           id="path64"
           style="fill:#717171;fill-opacity:1;fill-rule:evenodd;stroke:none"
           d="m 5727.02,16236.2 c -6.55,22.8 -11.89,44.6 -15.86,63.8 145.26,-24.5 471.24,-44.4 471.24,-44.4 0,0 10.7,-37.6 -26.95,-53.7 -34.48,-14.8 -305.18,9.5 -428.43,34.3 v 0" /></g><g
         transform="scale(1.40734)"
         id="g66"><path
           id="path68"
           style="fill:#000000;fill-opacity:1;fill-rule:evenodd;stroke:none"
           d="m 6190.99,16194.8 c -81.98,30.4 -201.21,76.2 -253.99,105.2 114.01,-12.7 331.53,-17.3 500.93,-19 -62.43,-21.5 -147.23,-51.1 -246.94,-86.2 v 0" /></g><g
         transform="scale(1.78112)"
         id="g70"><path
           id="path72"
           style="fill:#1a1a1a;fill-opacity:1;fill-rule:evenodd;stroke:none"
           d="m 16300,15930.6 c 0,0 -1379.5,120.8 -3534.9,109.3 -2155.5,-11.6 -3937.38,-258.7 -3937.38,-258.7 0,0 -496.37,-59.7 -965.4,-340.6 -469.04,-281.1 2262.48,-391.4 2262.48,-391.4 l 5849.1,517.3 c 0,0 29.3,321.5 326.1,364.1 v 0" /></g><g
         transform="scale(1.62832)"
         id="g74"><path
           id="path76"
           style="fill:#3971db;fill-opacity:1;fill-rule:evenodd;stroke:none"
           d="m 16300,7880.95 c -34.9,-88.07 -42.4,-123.38 -158.2,-146.04 -115.6,-22.6 -2698.5,-92.92 -3623.9,-123.26 -925.5,-30.09 -4265.28,20.21 -5296.53,20.21 -1031.12,0 -3721.93,65.47 -4315.56,90.52 -593.45,25.06 -734.28,50.3 -787.21,95.56 -52.75,45.26 32.91,84.14 32.91,84.14 l 4069.02,-16.22 8309.47,115.58 1770,-120.49" /></g><path
         id="path78"
         style="fill:#3971db;fill-opacity:1;fill-rule:evenodd;stroke:none"
         d="m 3355.66,12652.5 c -16.45,-78 -24.38,-274.4 49.32,-303.3 73.7,-28.7 2092.53,-147.4 2280.75,-122.8 188.5,24.7 458.65,110.6 503.72,176.1 45.07,65.4 -2227.75,90.1 -2518.3,147.4 -290.84,57.5 -315.49,102.6 -315.49,102.6 v 0" /><g
         transform="scale(1.63312)"
         id="g80"><path
           id="path82"
           style="fill:#3971db;fill-opacity:1;fill-rule:evenodd;stroke:none"
           d="m 12689.2,7554.24 c -115.4,0 90.2,-85.24 220.5,-105.38 130.6,-19.96 2026.2,25.16 2472.6,45.13 446.3,20.14 737.2,35.27 827.4,70.29 90.3,35.09 85.3,285.9 85.3,285.9 0,0 -20,-170.66 -210.6,-200.66 -190.6,-30.01 -1720.3,-45.13 -3395.2,-95.28 v 0" /></g><g
         transform="scale(1.68639)"
         id="g84"><path
           id="path86"
           style="fill:#3971db;fill-opacity:1;fill-rule:evenodd;stroke:none"
           d="m 11389.9,9200.09 c 0,0 3215.1,344.76 3540.5,301.05 325.5,-43.7 631.3,-252.49 713.9,-335.15 82.5,-82.54 0,9.72 276.8,19.45 276.9,9.78 378.9,169.95 -106.9,466.32 -485.6,296.14 -757.6,276.81 -1354.9,257.36 -597.4,-19.51 -2549.8,-378.92 -2802.2,-475.87 -252.7,-97.19 -335.3,-223.62 -267.2,-233.16 v 0" /></g><g
         transform="scale(1.0292)"
         id="g88"><path
           id="path90"
           style="fill:#3971db;fill-opacity:1;fill-rule:evenodd;stroke:none"
           d="m 3662.28,16244.4 c -166.9,-79.6 -469.31,-923.2 -469.31,-923.2 0,0 155.06,290.6 409.82,310.4 254.49,19.8 3167.07,-469.6 3278.62,-465.5 111.27,3.9 -107.41,238.8 -242.92,298.3 -135.23,59.8 -2812.88,835.6 -2976.21,780 v 0" /></g><g
         transform="scale(1.33265)"
         id="g92"><path
           id="path94"
           style="fill:#3971db;fill-opacity:1;fill-rule:evenodd;stroke:none"
           d="m 14834.2,10434.4 c 0,0 -153.5,-107.5 -414.7,-193.6 -261.2,-85.9 -301.2,-70.6 -384.2,-101.5 -83,-30.6 212,-21.4 593,21.6 381,43.1 753,79.9 937.2,212 184.4,132.1 697.7,1266 716,1293.7 18.5,27.7 -510.1,-1035.5 -669.8,-1167.5 -159.8,-132.4 -282.7,-147.7 -513.3,-205.9 -230.4,-58.6 -516.3,-80 -623.6,-89.2 -107.7,-9.4 396.2,141.3 359.4,230.4 v 0" /></g><path
         id="path96"
         style="fill:#3971db;fill-opacity:1;fill-rule:evenodd;stroke:none"
         d="m 5816.98,15625.4 c 0,0 532.34,-1523.3 716.6,-1748.6 184.25,-225.1 1240.72,-335.7 1318.67,-335.7 77.67,0 -196.72,131 -364.53,331.7 -167.81,200.7 20.41,-102.3 81.92,-196.7 61.51,-94.2 -761.67,135.2 -954.15,245.7 -192.47,110.6 -683.99,1625.7 -720.85,1658.6 -36.85,32.9 -77.66,45 -77.66,45 v 0" /><g
         transform="scale(1.15659)"
         id="g98"><path
           id="path100"
           style="fill:#3971db;fill-opacity:1;fill-rule:evenodd;stroke:none"
           d="m 3478.51,16300 c 0,0 -113.23,-357.6 -116.66,-502.9 -3.67,-145.1 81.37,-198.3 343.37,-276.2 262,-77.7 1791.59,-350.5 2046.48,-392.9 254.89,-42.4 -1242.84,453.2 -1242.84,453.2 L 3478.51,16300" /></g><g
         transform="scale(1.18874)"
         id="g102"><path
           id="path104"
           style="fill:#3971db;fill-opacity:1;fill-rule:evenodd;stroke:none"
           d="m 4476.56,15486.9 c 0,0 1381.39,-172.1 1426.22,-172.1 44.83,0 1098.81,916.3 1122.9,950.6 24.08,34.6 -489.08,20.8 -489.08,20.8 l -2060.04,-799.3" /></g><g
         transform="scale(1.29999)"
         id="g106"><path
           id="path108"
           style="fill:#3971db;fill-opacity:1;fill-rule:evenodd;stroke:none"
           d="m 15348.7,13956.8 951.3,208.1 c 0,0 -976.4,737 -1045.8,737 -69.3,0 -743.3,-44.1 -743.3,-44.1 l 837.8,-901" /></g><g
         transform="scale(1.61102)"
         id="g110"><path
           id="path112"
           style="fill:#3971db;fill-opacity:1;fill-rule:evenodd;stroke:none"
           d="m 16300,11628.4 c -76.2,-157.6 -147.5,-284.6 -401.5,-361 -254.3,-76.2 -2892.9,-411.7 -3146.9,-406.6 -254.3,5.1 1911.5,411.7 1911.5,411.7 l 1636.9,355.9" /></g><g
         transform="scale(1.75724)"
         id="g114"><path
           id="path116"
           style="fill:#3971db;fill-opacity:1;fill-rule:evenodd;stroke:none"
           d="m 11131.2,11248 c 0,0 619.8,745.8 1635.9,1258.4 1016.1,512.8 2022.8,727.2 2022.8,727.2 0,0 -1072.1,-116.6 -2018.2,-526.7 -946,-410.2 -1514.7,-792.4 -1761.8,-997.4 -247,-205.1 214.4,219.1 270.4,293.6 55.9,74.5 -4539.73,-242.3 -5518.36,-214.4 -978.86,28 -1221.16,-829.6 -1249.22,-540.7 -27.91,289.1 97.91,829.6 312.3,1160.7 214.39,330.8 908.8,741 908.8,741 0,0 -633.76,-279.7 -932.03,-615.2 -298.27,-335.7 -382.15,-764.5 -391.51,-1025.5 -9.35,-261 -4.68,-288.9 -4.68,-288.9 0,0 -1570.69,368.1 -1636.03,377.5 -65.16,9.4 237.78,433.4 880.93,787.7 643.16,354.2 1915.58,745.7 2129.99,797 214.37,51.3 144.54,-116.5 1020.75,-135.2 876.26,-18.7 6282.76,-27.9 6534.46,0 251.6,28 1305.1,205.1 1472.8,214.4 167.8,9.4 1193.2,-158.4 1342.3,-205 149.2,-46.6 139.8,-139.9 -605.9,-400.9 -745.8,-261 -1221.2,-559.2 -1696.5,-1053.4 0,0 -1398.3,-55.9 -2717.2,-354.2 v 0" /></g><g
         transform="scale(1.86603)"
         id="g118"><path
           id="path120"
           style="fill:#1448ab;fill-opacity:1;fill-rule:evenodd;stroke:none"
           d="m 15158.7,11228.8 c -237,-66 -517.8,-263.5 -706.5,-645.2 -188.8,-381.9 -302.9,-908.57 -307.3,-1040.29 -4.4,-131.67 87.8,359.9 219.5,482.79 131.7,122.9 92.1,-377.49 421.3,-144.8 329.1,232.6 48.2,-1246.55 48.2,-1246.55 0,0 241.4,1505.45 588.2,1878.45 346.8,373.1 702.3,206.3 838.4,-1145.51 l 39.5,-329.14 c 0,0 -30.8,807.54 -166.8,1391.25 -136.1,583.8 -412.6,921.8 -974.5,799 v 0" /></g><g
         transform="scale(2.27214)"
         id="g122"><path
           id="path124"
           style="fill:#1448ab;fill-opacity:1;fill-rule:evenodd;stroke:none"
           d="m 16300,8048.6 c -3.5,70.86 -8.2,135.6 -14.7,188.23 -34.5,277.59 -169.7,508.03 -197.4,600.72 -2.9,5.5 -5.7,10.96 -8.6,16.59 -259.6,490.16 -292.1,432.54 -393,418.06 -90,-28.82 -151.3,-299.18 -194.6,-648.73 -43.3,-349.71 -72.1,-785.86 -72.1,-832.78 0,-46.78 83,857.96 144.2,962.53 61.2,104.53 198.2,86.44 212.7,-79.35 14.4,-165.79 -122.6,-1020.14 -122.6,-1020.14 0,0 169.4,1027.36 367.6,1052.57 198.3,25.18 277.6,-666.81 277.6,-666.81 0,0 0.4,3.12 0.9,9.11 v 0" /></g><g
         transform="scale(2.17704)"
         id="g126"><path
           id="path128"
           style="fill:#1448ab;fill-opacity:1;fill-rule:evenodd;stroke:none"
           d="m 14355.1,6900.83 c 109.1,33.85 1854.7,658.32 1899.8,711.05 45.1,52.74 -139.1,312.22 -210.6,327.33 -71.5,14.97 -1787.1,-778.76 -1787.1,-778.76 l 97.9,-259.62" /></g><g
         transform="scale(2.18247)"
         id="g130"><path
           id="path132"
           style="fill:#1448ab;fill-opacity:1;fill-rule:evenodd;stroke:none"
           d="m 14247,6143.33 c 25.9,-111.71 47.4,-203.4 61.9,-265.62 l 1986.7,482.25 c 2.8,6.92 4.4,12.88 4.4,17.55 0,42.2 -37.5,234.55 -51.5,274.46 -2.8,7.52 -7.2,14.94 -12.6,21.81 L 14247,6143.33" /></g><g
         transform="scale(2.16546)"
         id="g134"><path
           id="path136"
           style="fill:#1448ab;fill-opacity:1;fill-rule:evenodd;stroke:none"
           d="m 14341.2,6268.28 2.9,-12.15 c 277.1,68.44 1736.1,450.67 1955.9,520.31 -1.3,0.69 -1.9,1.06 -1.9,1.06 l 0.5,3.69 c -201.5,-39.57 -1688.8,-410.67 -1957.4,-512.91 v 0" /></g><g
         transform="scale(1.32964)"
         id="g138"><path
           id="path140"
           style="fill:#032461;fill-opacity:1;fill-rule:evenodd;stroke:none"
           d="m 15320.6,11437.4 c 24.8,141.8 -486.5,203.4 -486.5,203.4 0,0 1287.3,150.9 1376.6,153.9 89.3,3.2 -44.3,-259.5 -44.3,-259.5 l -845.8,-97.8" /></g><g
         transform="scale(1.62006)"
         id="g142"><path
           id="path144"
           style="fill:#032461;fill-opacity:1;fill-rule:evenodd;stroke:none"
           d="m 13564.9,9591.61 c -37.7,53.33 -272.8,78.58 -159.1,98.83 113.7,20.12 2002,179.56 2163.7,141.59 161.8,-37.96 521.2,-151.53 625.9,-323.5 104.6,-172.03 -2536.8,-81.05 -2536.8,-81.05 l -93.7,164.13" /></g><path
         id="path146"
         style="fill:#032461;fill-opacity:1;fill-rule:evenodd;stroke:none"
         d="m 6140.41,15338.9 c 0,0 -147.4,315.2 -40.82,307 106.58,-8.3 876.48,-98.4 970.58,-122.8 94.11,-24.6 -151.65,-24.6 -188.5,-139.2 -36.85,-114.8 -69.45,-307.2 -69.45,-307.2 l -671.81,262.2" /><path
         id="path148"
         style="fill:#032461;fill-opacity:1;fill-rule:evenodd;stroke:none"
         d="m 5718.61,15605 c 45.08,98.1 213.17,94.1 213.17,94.1 0,0 -2010.9,339.9 -2178.71,303.1 -167.81,-36.9 -338.45,-184.6 -398.55,-383 -60.1,-198.4 2118.62,-415.6 2118.62,-415.6 l 245.47,401.4" /><g
         transform="scale(1.93151)"
         id="g150"><path
           id="path152"
           style="fill:#000000;fill-opacity:1;fill-rule:evenodd;stroke:none"
           d="m 15217.6,9514.32 c 585,-313.74 1020.4,-1149.67 1047.8,-2131.65 34.6,-1250.52 -605.9,-2264.34 -1430.5,-2264.34 -116.1,0 -229.5,20.14 -339.2,58.14 l 721.9,4337.85" /></g><g
         transform="scale(2.27547)"
         id="g154"><path
           id="path156"
           style="fill:#dddddd;fill-opacity:1;fill-rule:evenodd;stroke:none"
           d="m 15964,8041.27 c 150.9,0 291.2,-623.73 313.6,-1392.98 22.4,-769.25 -81.8,-1392.99 -232.5,-1392.99 -150.7,0 -291.1,623.74 -313.5,1392.99 -22.5,769.25 81.7,1392.98 232.4,1392.98 v 0" /></g><g
         transform="scale(1.91144)"
         id="g158"><path
           id="path160"
           style="fill:#dddddd;fill-opacity:1;fill-rule:evenodd;stroke:none"
           d="m 14891.9,9434.53 c 730.1,0 1346.7,-884.04 1377.4,-1974.33 30.7,-1090.27 -536.1,-1974.16 -1266,-1974.16 -438.2,0 -835.5,318.55 -1089.9,808.97 266.7,8.16 446.7,15.43 461.2,20.03 59,18.84 69.6,115.21 72.3,187.46 2.7,72.35 -58.9,238.3 -37.4,455.26 21.4,216.95 224.8,1812.98 390.9,2396.83 7.6,26.37 15,52.21 22.5,77.28 22.9,1.62 45.9,2.66 69,2.66 v 0" /></g><g
         transform="scale(1.90307)"
         id="g162"><path
           id="path164"
           style="fill:#000000;fill-opacity:1;fill-rule:evenodd;stroke:none"
           d="m 14959.4,9402.68 c 345.2,0 664.1,-204.19 903.4,-536.23 18.5,-44.98 -22.3,-94.59 -106,-231.89 -84,-137.78 -305.7,-484.11 -423.9,-643.33 -118.5,-159.37 -195.9,-219.54 -204.5,-247.55 -8.5,-28 -6.4,-180.7 34.5,-172.19 40.8,8.62 507.8,273.35 667,380.86 159.2,107.72 292.7,210.92 314.1,221.64 21.5,10.72 33.4,17.44 44.6,0.89 60.3,-211.66 96.5,-441.65 103.2,-681.9 8.2,-289.27 -27.3,-563.45 -97.4,-809.21 -6.8,-19.23 -21.8,-16.71 -32,-7.31 -10.7,9.67 -256.1,188.28 -477.7,338.82 -221.7,150.6 -479.9,324.9 -516.4,322.8 -36.7,-2.1 -105.5,-77.46 -99.1,-103.21 6.6,-25.95 165.8,-174.45 374.5,-479.9 208.7,-305.51 420.6,-652 430.3,-675.65 9.1,-22.38 9.3,-38.78 0.2,-52.17 -214.3,-277.03 -495.2,-443.87 -807,-443.87 -50.9,0 -101,4.47 -150.5,13.14 -16.2,13.66 -9.8,16.08 5.2,285.96 15,271.09 38.7,634.81 43,869.28 4.2,234.62 -10.8,404.55 -23.6,425.1 -13,20.44 -78.7,89.22 -93.7,89.22 -15.1,0 -31.1,-149.54 -75.2,-306.66 -44.3,-157.01 -251.9,-799.29 -307.7,-939.16 -55.9,-139.57 -74.2,-141.2 -100.5,-130.9 -124.8,117.5 -236.2,264.94 -329.3,435.35 234.3,7.46 389.5,13.87 402.9,18.18 59.2,18.92 69.9,115.71 72.6,188.28 2.6,72.67 -59.2,239.35 -37.6,457.26 5.4,54.96 22.5,198.26 47.7,391.15 49.7,14.14 195.7,53.92 213,69.42 19.3,17.29 53.9,146.29 25.9,163.58 -20.2,12.5 -135.3,54.17 -197.2,76.4 32.6,235.3 71.9,502.55 114.1,761.4 33.8,-90.38 81.5,-222.64 102.5,-304.14 34.4,-133.47 75.2,-346.44 75.2,-346.44 0,0 99,-12.98 112,17.13 12.8,30.21 25.7,421.79 10.7,703.65 -15,281.96 -68.8,822.04 -68.8,841.38 0,18.49 -0.1,38.3 22.5,40.41 9.7,0.26 19.4,0.41 29,0.41 v 0" /></g><g
         transform="scale(1.87676)"
         id="g166"><path
           id="path168"
           style="fill:#000000;fill-opacity:1;fill-rule:evenodd;stroke:none"
           d="m 16171.9,8903.8 c 46.4,-74.65 89.3,-154.2 128.1,-238.23 -4.1,-44.97 -74.3,-107.21 -168.5,-215.37 -102.6,-117.97 -464.8,-439.64 -484.4,-441.93 -19.6,-2.14 -25.1,74.17 -18.6,86.26 6.6,11.94 77.5,109.02 208.4,314.16 121.3,190.17 308.3,457.01 335,495.11 v 0" /></g><g
         transform="scale(1.88838)"
         id="g170"><path
           id="path172"
           style="fill:#000000;fill-opacity:1;fill-rule:evenodd;stroke:none"
           d="m 16300,6598.57 c -29,-83.94 -62.2,-164.11 -99.2,-239.89 -6.5,-8.74 -30.4,15.78 -49.3,35.74 -19.5,20.55 -600.7,658.18 -607.2,675.45 -6.6,17.42 28.3,70.59 53.2,62.91 24.9,-7.63 672.2,-484.7 687.3,-498.79 14.1,-13.08 15.2,-32.72 15.2,-35.42 v 0" /></g><g
         transform="scale(1.74103)"
         id="g174"><path
           id="path176"
           style="fill:#000000;fill-opacity:1;fill-rule:evenodd;stroke:none"
           d="m 16199.2,6108.51 c -69.3,19.81 -137.2,47.04 -203.2,81.04 -18.2,14.02 -18,41.07 -5.2,93.28 12.9,52.96 231.7,1120.83 248.1,1149.03 16.5,28.32 51.8,-18.72 56.5,-68.23 4.6,-49.34 -63.5,-1208.43 -67.5,-1229.91 -3.9,-19.87 -25.8,-24.58 -28.7,-25.21 v 0" /></g><g
         transform="scale(1.73814)"
         id="g178"><path
           id="path180"
           style="fill:#000000;fill-opacity:1;fill-rule:evenodd;stroke:none"
           d="m 16158,9760.31 c 31.9,-162.59 142,-727.67 128,-759.95 -16.7,-37.68 -51.9,-25.94 -66.1,14.16 -10.2,29.4 -90.1,240.54 -132.2,351.64 23,136.64 46.4,269.71 70.3,394.15 v 0" /></g><g
         transform="scale(2.22001)"
         id="g182"><path
           id="path184"
           style="fill:#000000;fill-opacity:1;fill-rule:evenodd;stroke:none"
           d="m 16151.5,7553.43 c 5.6,56.53 12.3,110.04 19.5,160.22 10.5,-31.8 87.5,-267.39 101.3,-354.19 14.8,-93.24 27.7,-201.12 22.1,-189.09 -5.5,11.98 -14.7,58.06 -45.2,144.77 -24.2,69.1 -77.1,191.4 -97.7,238.29 v 0" /></g><g
         transform="scale(2.24417)"
         id="g186"><path
           id="path188"
           style="fill:#000000;fill-opacity:1;fill-rule:evenodd;stroke:none"
           d="m 16268.3,8010.8 c 9.5,-15.29 18.8,-33.2 28,-53.16 2.2,-52.81 3.7,-149.32 -3,-294.19 -11,-235.45 -38.3,-432.5 -38.3,-432.5 0,0 3.6,40.2 14.6,233.58 9.5,169.6 0.9,474.17 -1.3,546.27 v 0" /></g><g
         transform="scale(2.27022)"
         id="g190"><path
           id="path192"
           style="fill:#000000;fill-opacity:1;fill-rule:evenodd;stroke:none"
           d="m 16294.8,6732.96 c 1,-24.71 1.8,-49.69 2.6,-74.67 1.4,-49.33 2.2,-98 2.6,-145.84 -41.1,19.95 -141.8,70.04 -157.6,87.17 -19.8,21.59 -10.8,61.27 16.2,73.92 19.2,8.98 93.7,41.18 136.2,59.42 v 0" /></g><g
         transform="scale(2.24857)"
         id="g194"><path
           id="path196"
           style="fill:#000000;fill-opacity:1;fill-rule:evenodd;stroke:none"
           d="m 16300,5431.36 c -12,-18.01 -24.3,-31.53 -37.3,-40.07 -3.7,90.1 -27.5,659.31 -35.9,778.32 -9.1,129.33 47.4,-149.39 60.1,-433.43 7.5,-168.91 11.3,-259.28 13.1,-304.82 v 0" /></g><g
         transform="scale(2.22139)"
         id="g198"><path
           id="path200"
           style="fill:#000000;fill-opacity:1;fill-rule:evenodd;stroke:none"
           d="m 16191.1,6023.94 c -6.4,38.31 -12.6,78.24 -18.3,119.34 69.7,190.51 125.4,396.87 125.4,396.87 0,0 1.8,-42.5 -24,-182.63 -19.8,-108.22 -64,-266.95 -83.1,-333.58 v 0" /></g><g
         transform="scale(2.26984)"
         id="g202"><path
           id="path204"
           style="fill:#000000;fill-opacity:1;fill-rule:evenodd;stroke:none"
           d="m 15998.9,7989.02 c 19.6,0 39.1,-11.1 58,-31.85 1.2,-104.64 5.5,-572.07 -5.6,-695.21 -12.7,-138.99 -41.5,-292.35 -54.1,-333.81 -12.7,-41.46 -16.3,-122.65 5.4,-110.01 21.7,12.6 70.3,95.65 104.6,299.45 29.9,177.72 58.4,496.65 65.3,575.59 58.9,-216.44 104.1,-534.26 122.1,-895.04 -73.4,-49.56 -225.6,-108.02 -254.1,-120.75 -32.5,-14.5 -23.5,-88.42 -16.2,-99.18 7.2,-10.83 43.3,-28.94 93.7,-70.4 44.9,-36.87 140.6,-163 182,-240.19 -11.9,-377.51 -58.1,-683.35 -124.9,-834.68 -6.1,159.48 -54,648.37 -64.3,705.07 -10.8,59.43 -72.2,257.9 -88.4,285 -16.3,27.09 -37.9,46.96 -36,21.58 1.8,-25.2 46.8,-221.77 55.8,-304.82 8.5,-77.58 28,-724.85 30.5,-809.75 -77.4,5.86 -151.6,180.72 -206.8,454.7 43.5,164.95 106,455.59 106,546.25 0,97.41 -10.9,256.23 -32.5,234.51 -17.9,-17.97 -100.6,-242.52 -140.6,-301.47 -11.2,124.9 -19.3,257.64 -23.3,395.4 -7,237.28 -1.3,460.08 14.6,653 28.2,-65.07 94.6,-220.9 124.1,-314.83 37.8,-120.89 50.5,-212.79 54.1,-176.7 3.6,36.08 0,310.19 -30.8,517.74 -26.5,180.37 -69.5,370.16 -80.4,416.77 38,147.37 86.6,233.63 141.8,233.63 v 0" /></g><g
         transform="scale(2.21461)"
         id="g206"><path
           id="path208"
           style="fill:#000000;fill-opacity:1;fill-rule:evenodd;stroke:none"
           d="m 11965.7,9173.86 c 272.9,225.91 1080.5,466.67 1451.9,556.04 770.9,185.31 1996.9,332.7 2790.6,276.3 26.1,-1.8 65.4,-3.3 91.8,-11.38 -25.9,-4.7 -67.5,-3.3 -92.2,-3.57 -503,-6.64 -983.7,-40.82 -1482.2,-104.58 -763.4,-97.53 -1623.6,-245.37 -2341.7,-525.55 -150.7,-58.75 -273.7,-122.73 -418.2,-187.26 v 0" /></g><g
         transform="scale(1.58853)"
         id="g210"><path
           id="path212"
           style="fill:#000000;fill-opacity:1;fill-rule:evenodd;stroke:none"
           d="m 11742.3,12469.9 c 104.8,258 684.9,728.4 932,900.2 982,682.7 2275.6,1094.9 3459.6,1250.7 98.3,12.9 66.5,9.3 166.1,14.5 -86.4,-24.3 -154.5,-38.8 -241.6,-57.3 -1396,-298.2 -3059.3,-840.8 -4087.8,-1862.4 -76.2,-75.8 -158.1,-179.5 -228.3,-245.7 v 0" /></g><g
         transform="scale(1.41223)"
         id="g214"><path
           id="path216"
           style="fill:#000000;fill-opacity:1;fill-rule:evenodd;stroke:none"
           d="m 5610.97,13864.3 c -87.91,189 -1,752.5 56.41,957 184.86,659.6 648.93,1161.4 1274.98,1424.7 89.73,37.8 69.65,28.9 165,54 -109.4,-70.5 -36.94,-26.1 -147.93,-88.7 -749.1,-423.9 -1212.37,-1066.6 -1319.35,-1931.9 -14.25,-115 -12.24,-337.2 -29.11,-415.1 v 0" /></g><g
         transform="scale(1.15094)"
         id="g218"><path
           id="path220"
           style="fill:#000000;fill-opacity:1;fill-rule:evenodd;stroke:none"
           d="m 3483.28,16300 c -29.31,-321.7 -194.32,-523.8 171.91,-637 278.8,-85.9 678.52,-136.6 974.81,-197.7 201.96,-41.4 1105.11,-214.3 1191.06,-268.2 -34.72,-8.4 -20.19,-6.6 -73.64,-3.4 -427.07,24.6 -1949.87,229.7 -2276.95,443.3 -217.23,141.9 -98.76,508.8 12.81,663 v 0" /></g><g
         transform="scale(2.16913)"
         id="g222"><path
           id="path224"
           style="fill:#000000;fill-opacity:1;fill-rule:evenodd;stroke:none"
           d="m 14453.7,6928.87 c 1213,515.27 597.5,281.21 1846.3,702.4 v 0 c -1213,-515.28 -597.5,-281.22 -1846.3,-702.4 v 0" /></g><g
         transform="scale(1.62808)"
         id="g226"><path
           id="path228"
           style="fill:#000000;fill-opacity:1;fill-rule:evenodd;stroke:none"
           d="m 14132.2,11299.8 c -8.4,-0.8 -16.6,-1.5 -23.7,-1.9 -45.3,-3.4 -90.6,-7.2 -135.8,-11.2 -127.3,-11.3 -254.6,-23.4 -381.8,-35 -127.5,-11.6 -255.1,-23.2 -382.9,-32.2 -46.4,-3.3 -93,-6.5 -139.5,-8 -26.4,-1.1 -63,-2.7 -88.8,2.8 -48,10 -130.4,66.7 -171.7,94.5 -82,55.2 -162.2,113.7 -241.6,172.7 -120,89 -241,180.4 -357.1,274.4 -8.1,6.4 -16.2,13.1 -24.2,19.5 -41.3,33.2 -84,66.9 -122.6,103.3 -37.6,35.5 -85.3,85.9 -59.5,142.6 10.4,23 30.6,38.2 54.8,44.9 1.9,0.5 3.6,0.8 5.7,1.2 855.6,154.4 1718.9,286.9 2583.3,382.4 255.6,28.2 512,53.2 768.7,72.2 80.1,5.9 160.5,11.1 240.8,15.2 47,2.2 94.7,4.4 141.7,4.4 82.6,0 173.3,-1.1 254.4,-17.3 64.9,-12.9 129.4,-37.6 170.3,-92.5 12.5,-16.9 22.1,-35.5 28.7,-55.6 48.6,-145.3 -11.8,-484.3 -46.8,-639.4 -56.4,-250.9 -171.8,-455.5 -433.7,-530.9 -40.8,-11.7 -84.5,-19.8 -126.3,-27.5 -62.3,-11.5 -125,-21.6 -187.7,-31.2 -160.8,-24.7 -322.3,-46.6 -483.6,-67.7 -183.7,-24 -367.7,-46.9 -551.8,-68.8 -63,-7.6 -126.1,-15.1 -189.3,-22.3 -28.7,-3.2 -57.9,-7.1 -86.8,-9.5 -101.7,-9.1 -155,75.3 -112,164.8 22.3,46.4 56.8,85.8 83,129.8 3.5,5.7 9.6,15.6 15.8,26.3 v 0" /></g><g
         transform="scale(1.62018)"
         id="g230"><path
           id="path232"
           style="fill:#b3b3b3;fill-opacity:1;fill-rule:evenodd;stroke:none"
           d="m 12134.2,12059.9 c -52.1,-14.2 69.5,-107.4 176.9,-194.4 107.4,-86.8 655.6,-511.7 745.7,-530.6 90.1,-19.1 1116.7,94.6 1189.5,88.3 72.6,-6.3 25.2,-82 -3.1,-129.4 -28.5,-47.5 -61.6,-85.4 -80.7,-124.8 -18.9,-39.5 -7.9,-74.3 45.9,-69.6 53.7,4.7 1390.2,159.5 1620.8,226 230.6,66.3 334.8,244.8 388.5,483.3 53.8,238.6 82.3,507.2 49,606.7 -33.2,99.4 -159.5,120 -391.7,120 -232.1,0 -1586,-86.9 -3740.8,-475.5 v 0" /></g><g
         transform="scale(1.61458)"
         id="g234"><path
           id="path236"
           style="fill:#000000;fill-opacity:1;fill-rule:evenodd;stroke:none"
           d="m 12227.9,12068 c 42.7,-42.1 129.6,-109.9 152.6,-128.3 45.8,-37.2 92.7,-73.4 139.4,-109.6 71.8,-55.5 144.2,-110.4 217,-164.5 78.7,-58.3 158.2,-116.4 239.5,-171.2 29.3,-19.6 59.2,-39.3 89.7,-57 9.8,-5.7 33.9,-19.7 44.6,-21.9 5.6,-1.1 14.2,-1.1 19.8,-1.1 14.8,-0.4 29.5,0 44.1,0.5 45.7,1.6 91.3,4.8 136.8,7.9 127.7,9.1 255.6,20.7 383,32.5 130.2,11.7 260.2,24.2 390.3,35.7 46.2,4 92.4,8 138.5,11.2 22.9,1.6 53.6,4.7 76.2,2.8 28.3,-2.5 55.1,-13.9 68.8,-40.2 25.9,-49.2 -14.3,-111.8 -39.4,-153.6 -14.1,-23.6 -29.9,-45.7 -45.5,-68.2 -11.9,-17 -24.4,-34.9 -33.5,-53.7 -0.9,-1.9 -2.7,-6 -3.6,-9.4 2.9,-0.2 6,0 7.8,0.1 28.1,2.5 56.7,6.2 84.8,9.5 63.4,7.2 126.9,14.8 190.3,22.3 185.2,22.1 370.2,45.1 555.1,69.3 161.9,21.1 323.7,43.1 485.1,68 62.3,9.4 124.5,19.5 186.3,30.9 38.4,7 79.3,14.4 116.7,25.2 223.2,64.1 312.7,241.6 360.4,453.7 6.5,29 12.7,58.1 18.3,87.3 19.1,99.1 34.4,201.5 41.1,302.3 3.5,53 7.9,145.9 -8.9,196.5 -3,8.9 -7.2,17.4 -12.9,24.9 -23.1,30.9 -69.3,44.2 -105.3,51.2 -73.9,14.8 -159.6,15.5 -234.9,15.5 -45.7,0 -91.8,-2.3 -137.5,-4.4 -80.1,-4 -160.3,-9.3 -240.2,-15.3 -257.3,-18.7 -514.7,-44 -771.2,-72.3 -378.3,-41.8 -756.2,-91.1 -1132.9,-145.7 -474.7,-68.7 -948.2,-146.1 -1420.4,-230.9 v 0" /></g><g
         transform="scale(1.60323)"
         id="g238"><path
           id="path240"
           style="fill:#b3b3b3;fill-opacity:1;fill-rule:evenodd;stroke:none"
           d="m 12522.8,12155.6 c -70.2,-22.4 9.6,-111.7 175.6,-229.8 166,-118.3 427.9,-341.8 574.6,-364.1 146.9,-22.4 2311.8,121.3 2487.4,162.8 175.6,41.6 258.7,207.6 303.2,325.8 44.7,118 54.3,236.2 83.1,271.3 28.7,35 70.2,73.4 111.8,114.9 41.5,41.6 -19.1,121.4 -236.3,159.7 -217.1,38.2 -1996.9,-127.6 -3499.4,-440.6 v 0" /></g><g
         transform="scale(1.58312)"
         id="g242"><path
           id="path244"
           style="fill:#000000;fill-opacity:1;fill-rule:evenodd;stroke:none"
           d="m 13089.2,12193.6 c 0,0 287.8,-339.5 417.2,-359 129.3,-19.3 2308.5,116.4 2476.7,148.8 168.1,32.2 316.9,523.7 297.6,559.3 -19.5,35.7 -1946.5,-93.8 -3191.5,-349.1 v 0" /></g><g
         transform="scale(1.48844)"
         id="g246"><path
           id="path248"
           style="fill:#b3b3b3;fill-opacity:1;fill-rule:evenodd;stroke:none"
           d="m 13999.2,12926.3 c 0,0 268.3,-295.8 357.7,-312.9 89.5,-17.4 1435.9,51.4 1533.8,77.3 98.1,25.7 158.2,254.4 239,311.1 80.9,56.8 136,48.3 153.1,72.3 17.2,24.2 12,110 12,110 0,0 -230.4,-41.1 -300.9,-111.8 -70.5,-70.5 -185.7,-342 -330,-352.5 -144.6,-10.3 -1168.7,-58 -1272.5,-63.6 -103.8,-5.3 -227.1,203 -392.2,270.1 v 0" /></g><g
         transform="scale(1.57495)"
         id="g250"><path
           id="path252"
           style="fill:#b3b3b3;fill-opacity:1;fill-rule:evenodd;stroke:none"
           d="m 15443.7,12461.5 c -34.3,-12.9 -44,-435.3 -34.3,-442 9.9,-6.5 52,-9.7 55.3,8.2 3.2,17.9 -1.6,380.2 24.5,396.6 25.9,16.2 523.2,63.3 554.2,52 30.7,-11.5 8,-378.7 21,-396.7 12.9,-17.8 164.2,305.6 195.1,349.5 30.8,43.9 40.5,117 -22.9,123.5 -63.3,6.5 -792.9,-91.1 -792.9,-91.1 v 0" /></g><g
         transform="scale(1.55047)"
         id="g254"><path
           id="path256"
           style="fill:#b3b3b3;fill-opacity:1;fill-rule:evenodd;stroke:none"
           d="m 15093.3,11983.1 c 3.3,-11.5 -150.2,-236 -165.1,-283.9 -14.9,-47.7 1183.5,138.8 1228.1,145.4 44.6,6.5 140.4,232.7 142,249.1 1.7,16.7 -84.3,0 -84.3,0 0,0 -69.2,-168.3 -87.4,-198 -18.2,-29.8 -1069.6,-158.5 -1119.2,-163.4 -49.5,-4.9 6.6,38 85.9,250.8 v 0" /></g><g
         transform="scale(1.60133)"
         id="g258"><path
           id="path260"
           style="fill:#c86400;fill-opacity:1;fill-rule:evenodd;stroke:none"
           d="m 16173.8,12323.5 c 0,0 -54.3,-313.3 -148.7,-449.3 -94.2,-135.8 -217.4,-163 -217.4,-163 l -110.3,-236.5 c 0,0 300.6,11.1 418.9,179 118.2,167.8 183.7,771.9 183.7,771.9 l -126.2,-102.1" /></g><g
         transform="scale(1.46645)"
         id="g262"><path
           id="path264"
           style="fill:#ffffff;fill-opacity:1;fill-rule:evenodd;stroke:none"
           d="m 15578.3,12611.1 c 85.6,7.1 145.3,11.2 161.6,9.7 80.2,-7 27.8,-90.7 -3.5,-143 -31.5,-52.5 -68.1,-94.4 -89.1,-137.9 -20.9,-43.7 -8.8,-82.1 50.6,-76.9 9.1,0.8 51.2,5.6 117,13.1 99.1,471.7 359.3,1157.5 485.1,1475.1 -20.7,-2.1 -41.3,-4.4 -62.4,-6.8 -169.3,-257.5 -425.6,-709 -659.3,-1133.3 z m -1039.4,-88.1 c 194.7,9.3 585.9,47.2 870,73 229.1,409.2 521.6,858.5 726.8,1136.8 -164.9,-18.9 -342.9,-40.5 -533.6,-65.3 -319.4,-284.3 -711.2,-675 -1063.2,-1144.5 v 0" /></g><g
         transform="scale(1.24725)"
         id="g266"><path
           id="path268"
           style="fill:#000000;fill-opacity:1;fill-rule:evenodd;stroke:none"
           d="m 3401.81,15761.4 c 0,0.2 0,0.2 0,0.2 17.05,54.1 33.18,107.3 52.96,160.4 30.23,80.5 66.59,158.2 107.5,233.7 0.45,0.9 0.91,1.6 1.59,2.5 6.13,10.2 12.5,20.9 17.73,31.8 0.46,1.4 1.14,2.2 1.59,3.4 3.18,5.7 6.36,11.2 9.55,16.6 0.9,1.4 1.36,2.5 2.26,3.6 6.37,9.3 13.87,18 22.05,25.9 65,60.5 172.73,49.4 253.19,37.6 66.58,-9.8 133.18,-24.4 198.86,-38.9 90.68,-20.5 181.36,-42.3 271.82,-63.4 317.95,-74.8 635.45,-155.5 952.04,-236.2 248.64,-63.4 497.27,-127.4 745,-194.3 81.82,-22.1 163.63,-44.3 244.54,-68.4 23.18,-6.8 46.83,-13.9 69.55,-21.8 7.5,-2.7 15,-5.5 22.27,-8.8 30.91,-14.6 47.73,-49.4 28.41,-81.4 -9.77,-16.2 -46.82,-46.2 -61.59,-58.9 -41.82,-36.4 -84.1,-72 -126.36,-107.7 -125.68,-106.2 -252.73,-210.7 -380.69,-314.1 -122.95,-99.3 -247.27,-198.2 -374.31,-292 -45.46,-33.7 -92.05,-67.6 -139.78,-98 -26.59,-16.9 -69.08,-43.9 -100.91,-46.4 -23.17,-1.8 -49.09,-0.2 -72.49,0.9 -36.14,2.1 -72.28,5.1 -108.42,8.4 -94.76,8.5 -189.31,18.9 -283.85,30 -92.05,10.8 -184.1,22.3 -275.69,34.8 -57.73,8 -119.09,15.7 -175.91,27.5 -3.18,0.7 -10.68,2 -15.23,1.9 -9.54,-23 7.28,-101.5 12.28,-122.1 2.95,-13.7 6.36,-27.1 9.77,-40.5 15.23,-59.5 40.91,-150.2 -5.68,-201.8 -26.14,-28.6 -63.64,-35.2 -100.45,-32.5 -21.82,1.6 -44.55,5.7 -65.92,9.4 -34.99,5.8 -69.54,12.4 -104.32,19.3 -92.5,18.1 -184.99,37.9 -276.81,58.6 -76.36,17.2 -152.72,35.2 -228.63,54.8 -56.37,14.7 -115.24,29.9 -170,49.8 -58.42,21 -113.41,51.3 -148.19,104.5 -31.58,48.6 -39.09,106.3 -37.95,163.2 1.36,72.9 15,150.5 27.72,222.2 16.37,93.4 40.23,187.1 65.24,278.7 36.81,135.2 78.4,270 122.27,402.9 0.22,0.7 0.45,1.2 0.68,1.6 5,14.3 9.77,28.6 14.31,43 v 0" /></g><g
         transform="scale(1.2453)"
         id="g270"><path
           id="path272"
           style="fill:#b3b3b3;fill-opacity:1;fill-rule:evenodd;stroke:none"
           d="m 3645.91,16208 c -3.18,-5.5 -6.37,-10.9 -9.34,-16.2 -5.23,-11.1 -12.29,-23.4 -20.48,-37.1 -97.2,-179.4 -129.29,-297.7 -156.6,-384.9 v 0 0 c -5.25,-16.2 -10.03,-31.4 -15.26,-45.5 -40.06,-121.1 -147.96,-457.5 -185.97,-675.2 -47.35,-269.2 -47.35,-367.8 123.15,-429.5 170.71,-61.7 748.2,-183 832.43,-189.1 84.22,-6.2 78.07,53.5 49.4,166.6 -28.91,112.9 -59.64,252.6 57.58,228.1 117.01,-24.8 797.38,-109.1 902.1,-100.9 104.93,8.2 1130.39,871.6 1142.91,892.1 12.29,20.5 -1557.88,419.3 -2030.66,530.4 -448.66,105.1 -626.43,153.2 -689.26,61.2 v 0" /></g><g
         transform="scale(1.23867)"
         id="g274"><path
           id="path276"
           style="fill:#000000;fill-opacity:1;fill-rule:evenodd;stroke:none"
           d="m 4250.57,14562.3 c 1.14,24.3 -13.96,83.1 -17.85,99.2 -3.67,14.3 -7.33,28.6 -10.76,42.9 -15.79,68.2 -37.75,174.6 19.68,229.1 31.13,29.7 73.23,33.5 113.51,24.7 54.69,-11.4 113.97,-18.5 169.35,-26.3 91.76,-12.6 183.76,-24 275.53,-34.8 94.05,-11 188.56,-21.4 282.85,-29.9 35.01,-3.3 70.26,-6 105.5,-8 17.38,-1 37.99,-2.4 55.6,-1.1 16.94,5.2 51.49,28.3 65.68,37.4 45.77,30 90.39,62.7 134.33,95.3 122.44,91 242.35,186.7 361.12,282.5 124.49,100.3 247.84,202.1 370.05,304.9 39.81,33.4 79.4,67.1 118.77,100.9 -11.21,3.2 -22.43,6.6 -33.64,9.8 -81.94,23.6 -164.54,46.1 -247.15,68.3 -236.4,63.3 -473.49,124.4 -710.8,184.8 -318.1,81.1 -637.1,162.3 -956.57,237.4 -90.85,21.2 -181.48,43.3 -272.55,63.6 -63.39,14.2 -127.93,28.1 -192.23,37.7 -36.62,5.3 -132.97,19.3 -163.63,-9.6 -2.06,-1.8 -3.89,-3.9 -5.5,-6.1 -2.28,-3.9 -4.58,-8 -7.09,-12.1 -6.41,-13.6 -13.96,-26.6 -21.51,-39.2 -38.67,-71.2 -73,-144.2 -101.38,-220.2 -19.23,-51.5 -34.78,-103.4 -51.26,-155.8 -0.23,0 -0.23,0 -0.23,-0.2 -4.8,-15.8 -10.06,-31.6 -15.79,-47.2 -43.48,-132 -84.67,-265.4 -121.29,-399.5 -24.26,-88.8 -47.6,-179.9 -63.39,-270.8 -11.67,-66.1 -24.95,-139.3 -26.31,-206.6 -0.69,-33.2 1.82,-73.4 20.59,-102.3 20.37,-31.1 60.42,-49.2 94.06,-61.5 51.95,-18.9 108.24,-33.2 161.56,-47.2 75.06,-19.5 150.81,-37.3 226.79,-54.2 91.54,-20.9 183.53,-40.6 275.75,-58.4 33.88,-6.9 67.97,-13.3 102.3,-19 17.85,-3.2 37.76,-6.9 55.84,-8.2 2.29,0 6.17,-0.3 10.07,-0.3 v 0" /></g><g
         transform="scale(1.23706)"
         id="g278"><path
           id="path280"
           style="fill:#b3b3b3;fill-opacity:1;fill-rule:evenodd;stroke:none"
           d="m 3765.99,16270.9 c -59.8,-43.3 -186.06,-293.8 -229.6,-550.4 -43.31,-256.4 -60.04,-407.4 -2.06,-459.2 57.97,-51.8 1820.78,-260.8 1891.13,-239.9 70.34,20.6 817.59,614.8 835.92,678.5 18.33,63.7 -2184.9,600.1 -2495.39,571 v 0" /></g><g
         transform="scale(1.21601)"
         id="g282"><path
           id="path284"
           style="fill:#000000;fill-opacity:1;fill-rule:evenodd;stroke:none"
           d="m 3873.36,16300 c -88.36,-54.8 -138.94,-703 -105.14,-715.6 33.57,-12.6 1587.01,-202.2 1628.98,-193.8 42.19,8.4 463.19,429.5 509.34,480 46.39,50.4 -1199.58,315.7 -2033.18,429.4 v 0" /></g><g
         transform="scale(1.21255)"
         id="g286"><path
           id="path288"
           style="fill:#b3b3b3;fill-opacity:1;fill-rule:evenodd;stroke:none"
           d="m 3951.97,16260 c 0,0 -48.62,-489.7 -31.56,-548.8 16.83,-59.3 58.91,-36.1 58.91,-14.8 0,21 8.65,451.6 38.11,485.3 29.45,33.9 263.93,-6.3 394.61,2.1 130.92,8.7 -417.75,116.2 -460.07,76.2 v 0" /></g><g
         transform="scale(1.20565)"
         id="g290"><path
           id="path292"
           style="fill:#b3b3b3;fill-opacity:1;fill-rule:evenodd;stroke:none"
           d="m 4605.16,16265.9 c 0,0 -44.66,-547.6 -6.34,-592.3 38.09,-44.4 804.56,-118.7 842.64,-108.1 38.33,10.6 -8.46,48.6 -27.5,48.6 -19.28,0 -747.19,95.8 -768.59,112.7 -21.16,16.9 19.04,462.6 10.58,505.2 -8.47,42.4 -57.13,68 -50.79,33.9 v 0" /></g><g
         transform="scale(1.15492)"
         id="g294"><path
           id="path296"
           style="fill:#b3b3b3;fill-opacity:1;fill-rule:evenodd;stroke:none"
           d="m 3770.22,16300 c 0,0 13.25,-345.6 40,-416.5 26.51,-71 638.15,-179.5 677.91,-181.6 40.01,-2.3 -573.84,188.2 -595.93,226 -22.33,37.5 -42.21,347.8 -42.21,347.8 l -79.77,24.3" /></g><g
         transform="scale(1.22994)"
         id="g298"><path
           id="path300"
           style="fill:#ffffff;fill-opacity:1;fill-rule:evenodd;stroke:none"
           d="m 3840.54,14693.6 c 109.25,-24.4 217.57,-46.8 298.92,-62.2 50.93,51.6 108.55,109.7 171.01,171.9 -26.73,109 -46.33,230.2 64.29,207 22.83,-4.9 66.85,-12 124,-20.1 376.82,372.4 839.14,821.6 1084.82,1060 -44.7,11.5 -89.89,23 -135.51,34.8 -504.96,-366.7 -1230.71,-1035.8 -1607.53,-1391.4 z m -387.42,98.6 c 70.29,-22.5 180.92,-50.9 298.69,-78.3 334.18,335.3 1091.96,966.6 1612.59,1392.5 -281.63,71.6 -564.41,142.4 -773.91,193.6 -339.02,-347.6 -801.12,-882.5 -1137.37,-1507.8 v 0" /></g><g
         transform="scale(1.63011)"
         id="g302"><path
           id="path304"
           style="fill:#000000;fill-opacity:1;fill-rule:evenodd;stroke:none"
           d="m 3992.23,8407.71 c 5.39,-2.08 12,-3.99 16.7,-5.52 15.82,-4.91 31.99,-9.2 47.99,-13.43 50.26,-13.01 101.2,-24.48 151.81,-35.46 143.12,-30.92 287.62,-58.22 431.95,-82.39 145.38,-24.54 294.05,-47.36 440.99,-59.5 42.78,-3.62 86.95,-4.54 129.9,-5.89 78.77,-2.46 157.72,-3.99 236.49,-5.4 242.93,-4.36 486.03,-6.81 728.94,-8.9 686.03,-5.89 1372.24,-8.15 2058.21,-8.65 622.35,-0.36 1244.88,0.68 1867.29,5.34 239.8,1.97 479.7,4.17 719.5,8.22 153.9,2.58 308.7,5.03 462.3,12.15 382.7,18.1 767.9,52.51 1147.7,102.26 129,17.06 258.4,35.64 386.3,58.96 39.5,7.3 79.2,14.96 118.1,24.17 11.3,2.76 34.4,7.97 47.1,13.18 3,4.54 5.9,10.43 8,14.48 7.3,13.37 13.9,27.3 20.4,40.98 20,43 38.6,86.62 57,130.3 51.5,122.57 100.5,246.55 149,370.34 76.2,194.28 151,389.05 224.2,584.32 5.2,13.92 16.5,23.49 31.3,26.44 47.8,9.2 98.1,14.97 146.6,20.85 78.6,9.57 157.3,17.92 236.1,25.89 208.2,21.04 416.5,39.69 625,57.05 225,18.59 450.6,36.01 675.9,49.02 79.6,4.72 159.6,9.08 239.5,10.98 26.3,0.67 52.5,1.04 78.8,0.49 15.8,-0.49 35.2,-0.86 50.7,-4.66 41,-9.94 82.8,-23.99 122.6,-38.1 54.6,-19.14 108.7,-40.18 161.7,-63.12 78.1,-33.37 241.7,-107.48 285.2,-182.2 14.3,-24.54 23.8,-72.39 29.8,-100.17 11.9,-57.73 21.9,-116.38 31.1,-174.6 25.7,-162.25 47.3,-325.56 67.3,-488.49 20.5,-166.25 39.6,-332.98 55.6,-499.78 5.8,-58.4 11.1,-116.99 14.8,-175.63 1.7,-24.66 5.9,-71.29 0.9,-95.09 -6.3,-30.06 -15.5,-59.51 -37.6,-81.89 -37.4,-38.1 -105.5,-43.13 -155.8,-48.53 -20.7,-2.27 -42.6,-2.76 -63.5,-3.86 -42.1,-2.09 -84.2,-3.63 -126.2,-5.34 -136.7,-5.4 -273.5,-10.12 -410.3,-14.66 -397.4,-13.56 -794.8,-25.89 -1192.3,-37.85 -526.9,-16.01 -1053.8,-32.03 -1580.7,-45.21 -68.7,-1.79 -137.6,-2.27 -206.4,-2.64 -108.3,-0.68 -216.5,-0.86 -324.8,-0.86 -312.9,-0.19 -625.7,1.04 -938.3,2.45 -852.1,3.99 -1704.23,10.25 -2556.25,17.18 -860.25,6.99 -1720.5,14.78 -2580.6,23.49 -313.01,3.13 -626.02,6.45 -938.85,9.88 -172.5,2.15 -345,3.87 -517.33,6.99 -234.24,4.36 -468.47,9.39 -702.53,15.65 -250.75,6.62 -501.68,14.23 -752.43,24.72 -190.59,7.79 -383.09,15.95 -573.33,31.96 -76.86,6.44 -153.89,13.07 -230.58,21.22 -45.56,4.85 -91.47,9.88 -136.68,17.74 -43.13,7.48 -87.81,16.31 -121.38,46.8 -2.95,2.58 -5.73,5.22 -8.52,7.98 -12,12.14 -15.48,29.87 -18.43,46.07 -3.31,18.95 -5.57,38.46 -7.48,57.72 -6.61,62.08 -11.13,124.84 -15.13,187.29 -12.17,183.3 -20.69,367.09 -28.34,550.7 -7.48,178.76 -13.91,357.89 -18.08,536.84 -1.4,62.57 -2.62,125.39 -2.79,187.96 0,19.99 0,40.18 0.69,60.36 0.35,11.84 0.53,25.58 2.79,37.18 10.08,53.06 49.91,97.23 91.99,128.52 38.43,28.71 94.42,57.42 142.77,62.26 20.69,2.09 53.55,-2.27 74.42,-4.35 45.91,-4.48 91.99,-9.88 137.72,-15.46 130.77,-15.65 261.54,-32.88 391.96,-50.06 198.76,-26.44 397.51,-53.43 595.93,-81.04 15.65,-2.09 28,-12.02 33.56,-26.81 74.95,-200.47 151.46,-400.64 229.37,-599.89 49.73,-127.29 99.99,-254.59 153.02,-380.53 18.78,-44.66 37.91,-89.69 58.6,-133.67 6.61,-14.11 13.39,-28.41 20.7,-42.09 2.26,-4.04 5.39,-9.93 8.34,-14.66 v 0" /></g><g
         transform="scale(1.62709)"
         id="g306"><path
           id="path308"
           style="fill:#000000;fill-opacity:1;fill-rule:evenodd;stroke:none"
           d="m 13506.3,9550.2 c 0,0 -421.6,-1123.17 -471.8,-1160.78 -50.4,-37.8 -858.9,-166.74 -1727.2,-207.67 -868.3,-40.94 -5842.14,-28.4 -6219.66,3.13 -377.53,31.34 -1063.42,173.01 -1113.77,204.54 -50.35,31.34 -484.5,1192.31 -484.5,1192.31 0,0 -1129.44,157.34 -1192.33,151.07 -62.89,-6.45 -182.41,-75.66 -198.26,-157.34 -15.68,-81.86 40.94,-1595.12 75.61,-1629.78 34.5,-34.48 59.76,-47.08 471.78,-81.74 412.19,-34.67 1340.25,-59.74 2029.27,-72.28 689.02,-12.72 7320.76,-75.6 8075.76,-56.6 755.1,18.8 3259.4,94.21 3375.8,106.94 116.4,12.53 141.5,21.94 157.3,97.41 15.7,75.59 -138.5,1409.39 -195.1,1506.93 -56.6,97.59 -427.9,236.06 -544.2,264.33 -116.4,28.4 -1793.2,-113.27 -2038.7,-160.47 v 0" /></g><path
         id="path310"
         style="fill:#000000;fill-opacity:1;fill-rule:evenodd;stroke:none"
         d="m 6182.08,15514.6 c 119.62,-13.9 239.81,-29.8 358.86,-47.3 77.39,-11.7 155.06,-23.8 231.6,-39.4 43.08,-8.8 124.72,-24.1 156.19,-55.6 19.27,-19.6 37.13,-64.1 47.9,-89.6 21.55,-50.7 41.39,-102.3 60.94,-153.6 56.42,-147.4 110.27,-295.9 163.56,-444.2 80.51,-223.6 159.59,-447.6 237.83,-671.8 7.66,-22.4 3.97,-45.1 -10.2,-64.1 -14.46,-18.7 -35.43,-28 -58.96,-26.6 -50.46,3.7 -102.9,11.3 -152.51,19.8 -106.3,18.2 -214.3,45.4 -314.36,85.6 -114.8,46.2 -232.44,116.3 -300.19,223.1 -45.63,72 -84.47,155.1 -119.9,232.5 -46.49,101.4 -89.87,204.9 -131.81,308.1 -84.48,208.6 -165.55,420.7 -241.23,632.4 -8.22,23 -4.26,46.5 10.77,65.5 15.31,19 37.13,28 61.51,25.2 v 0" /><path
         id="path312"
         style="fill:#000000;fill-opacity:1;fill-rule:evenodd;stroke:none"
         d="m 6174.14,15446.9 c 0,0 322.3,-900.9 486.14,-1159.4 163.85,-258.5 714.05,-296.8 714.05,-296.8 0,0 -447.87,1287.2 -493.79,1333.4 -46.21,45.9 -706.4,122.8 -706.4,122.8 v 0" /><g
         transform="scale(1.32065)"
         id="g314"><path
           id="path316"
           style="fill:#000000;fill-opacity:1;fill-rule:evenodd;stroke:none"
           d="m 15473.4,11604.1 763.4,118.3 c 19.2,2.7 37,-4.3 49,-19.5 11.9,-15.3 14.2,-34.4 6.7,-52 -75.3,-175.6 -155.8,-350.9 -239.8,-522.4 -49.1,-100.3 -100.2,-200.7 -156.2,-297.3 -33.1,-57.1 -87.2,-148.7 -138.5,-190.4 -133.7,-108.8 -404.8,-136.7 -573.1,-143.4 -10.7,-0.4 -21.2,-1.1 -31.8,-1.4 -42.4,-2.2 -97.8,-3.7 -123.4,37.4 -11.1,18.1 -12.6,39 -7,59.1 5.1,18 14.7,39.3 22.1,56.9 15.2,37.5 30.6,74.9 46.3,112.3 45.1,108.1 90.6,216.1 136.1,324.1 68.7,162.7 137.3,325.2 206.5,487.4 7.3,16.9 21.5,28.1 39.7,30.9 v 0" /></g><g
         transform="scale(1.31618)"
         id="g318"><path
           id="path320"
           style="fill:#000000;fill-opacity:1;fill-rule:evenodd;stroke:none"
           d="m 15534,11592.3 c 0,0 -398.7,-937.3 -410.3,-978.2 -11.7,-40.8 60.3,-31 110.6,-29.1 50.7,1.9 398.7,13.6 544.7,132.2 145.8,118.7 521,993.8 521,993.8 l -766,-118.7" /></g><path
         id="path322"
         style="fill:#444444;fill-opacity:1;fill-rule:evenodd;stroke:none"
         d="m 6261.17,13719.4 c 0,0 -563.25,-486.4 -773.01,-522.1 -210.05,-36 -1213.23,56.1 -1305.36,56.1 -92.12,0 -230.46,2416.3 -230.46,2416.3 0,0 230.46,-2211.3 291.98,-2278 61.22,-66.6 1105.51,-117.9 1238.74,-117.9 132.94,0 778.11,445.6 778.11,445.6 v 0" /><g
         transform="scale(1.55203)"
         id="g324"><path
           id="path326"
           style="fill:#444444;fill-opacity:1;fill-rule:evenodd;stroke:none"
           d="m 13730.8,8757.11 c 0,0 666.1,-349.54 784.8,-366.04 118.9,-16.62 1626,19.78 1705.3,46.07 79.1,26.48 -23.2,1668.96 -23.2,1668.96 0,0 -9.9,-1543.51 -85.6,-1589.71 -76,-46.2 -1504.1,-42.91 -1619.5,-33.05 -115.4,9.85 -761.8,273.77 -761.8,273.77 v 0" /></g><g
         transform="scale(1.59066)"
         id="g328"><path
           id="path330"
           style="fill:#444444;fill-opacity:1;fill-rule:evenodd;stroke:none"
           d="m 4032.62,8531.64 c 0,0 -328.25,-286.36 -402.21,-328.23 -73.95,-41.94 96.59,-112.66 167.34,-138.5 70.75,-25.65 -1454.52,77.33 -1454.52,77.33 0,0 472.96,-90.15 1068.35,-106.19 595.38,-16.03 685.56,-29.04 827.05,3.21 141.67,32.25 656.51,212.43 788.38,238.08 132.06,25.84 2165.74,9.8 3845.68,-3.21 1679.81,-12.82 2471.51,-6.41 2619.51,-25.65 148,-19.23 872.1,-257.5 1058.7,-279.95 186.7,-22.69 3749.1,80.35 3749.1,80.35 0,0 -3147.3,0 -3256.8,-12.83 -109.4,-12.82 579.4,83.74 656.6,122.22 77.2,38.66 -585.6,321.88 -585.6,321.88 0,0 -1332.5,-180.18 -1731.5,-180.18 -399,0 -6085.35,9.62 -6336.26,28.86 -251.09,19.42 -1013.82,202.81 -1013.82,202.81 v 0" /></g><g
         transform="scale(1.22777)"
         id="g332"><path
           id="path334"
           style="fill:#000000;fill-opacity:1;fill-rule:evenodd;stroke:none"
           d="m 7292.06,16001 c 442.36,38.1 886.61,62.6 1330.1,81 486.25,20.2 972.9,32.4 1459.44,39.8 1009.1,15.2 2019.6,10.8 3028.8,-7.8 361.1,-6.8 722.2,-15.3 1083.1,-27.3 119.3,-3.9 238.7,-8.3 358,-13.6 69.4,-3 139.3,-6 208.3,-11.6 170.4,-13.2 361.1,-31.8 510.7,-121.4 57.7,-34.6 108.6,-77.8 157.3,-123.7 61.4,-58.3 120.3,-119.7 180,-179.5 65.4,-65.3 130,-131.6 193.5,-198.5 113.1,-119.4 226.3,-243.6 327.2,-373.3 54,-69.6 154.6,-202.5 162.5,-292.3 9,-103 -49.9,-267.2 -83.6,-364.4 -31.6,-90.9 -64.6,-181.2 -97.2,-271.9 -40.4,-113.2 -80.1,-226.5 -117.8,-340.8 -54.8,-166 -115.6,-331.3 -175.6,-495.5 -82.5,-225.3 -166.3,-450.2 -250.7,-674.6 -99.6,-264.8 -200,-529.2 -300.9,-793.3 -60.5,-158.2 -120.7,-316.8 -182.9,-474.2 -99,-251.9 -165.5,-371.7 -448.6,-410.1 -42,-5.8 -85.2,-8.3 -127.6,-10.6 -64.2,-3.2 -128.6,-4.9 -193,-6 -209,-3.9 -418.4,-3.7 -627.6,-3.7 -835.7,0 -1671.3,2.1 -2507.1,-0.9 -958.5,-3.5 -1917.85,-3.2 -2876.5,9.7 -290.88,4.2 -582.26,9 -873.16,18.9 -89.12,3.3 -178.71,6.7 -267.82,12.2 -48.02,2.8 -101.82,5.6 -149.15,14.1 -216.79,39 -310.3,114.3 -388.1,318.4 -60.04,157.3 -119.6,314.2 -177.09,472.4 -98.58,272.5 -192.55,547.4 -276.59,824.7 -70.42,232.8 -135.99,470.5 -182.62,709.2 -66.04,337.4 -130.45,677.7 -180.09,1017.7 -17.08,116.7 -33.24,236 -41.1,353.5 -3.47,52.9 -10.39,157.5 17.32,204.1 14.32,24.3 39.48,50.4 58.87,70.9 32.33,34.2 66.27,67.2 100.2,99.8 91.2,87.2 184.94,172 279.37,255.8 125.14,111.5 252.81,223.7 383.26,328.5 186.77,150.1 442.82,322.8 682.24,363.9 1.62,0.2 3,0.4 4.62,0.4 v 0" /></g><g
         transform="scale(1.22385)"
         id="g336"><path
           id="path338"
           style="fill:#282828;fill-opacity:1;fill-rule:evenodd;stroke:none"
           d="m 7320.01,15996.9 c -206.83,-35.7 -445.4,-182.1 -658.72,-353.5 -213.32,-171.6 -759,-654.5 -811.35,-742.6 -52.35,-87.7 64.85,-792.6 211.23,-1541.1 146.39,-748.9 568.86,-1827.9 635.79,-2003.5 66.94,-175.6 138.04,-246.7 347.2,-284.4 209.15,-37.5 1827.66,-62.8 4170.04,-54.5 2342.1,8.4 3212,-12.5 3459,21.1 246.6,33.4 305.2,121.1 405.5,376.4 100.5,255 744.7,1936.6 911.9,2442.6 167.2,506.1 309.4,815.5 296.9,957.8 -12.5,142.2 -372.2,535.4 -669.1,832.4 -296.9,296.9 -334.7,372.2 -815.6,409.7 -481,37.8 -4872.68,163.3 -7482.79,-60.4 v 0" /></g><g
         transform="scale(1.20596)"
         id="g340"><path
           id="path342"
           style="fill:#000000;fill-opacity:1;fill-rule:evenodd;stroke:none"
           d="m 7293,15935 c -123.16,-38.3 -1086.64,-785.3 -1120.72,-917 -33.85,-131.6 186.86,-1477 390.66,-2122.3 203.54,-645.2 462.57,-1082.3 662.14,-1171.4 199.32,-89.1 2559.51,-89.1 4749.72,-89.1 2190.2,0 2809.8,-34.1 2958.4,12.6 148.5,46.6 186.8,114.6 254.8,250.4 67.9,135.9 679.1,1731.9 874.4,2321.9 195.1,590 237.6,662.1 224.9,789.5 -12.7,127.4 -683.3,865.9 -984.8,984.7 -301.4,118.9 -7406.81,186.8 -8009.5,-59.3 v 0" /></g><g
         transform="scale(1.76631)"
         id="g344"><path
           id="path346"
           style="fill:#000000;fill-opacity:1;fill-rule:evenodd;stroke:none"
           d="m 7877.03,15602.9 c 59.56,7.2 119.4,13.6 179.07,19.9 179.76,18.8 360.02,35.1 540.05,50.2 667.44,55.4 1337.48,91.4 2006.85,114 414.2,14.1 828.6,21.8 1243,25.9 659,6.8 1318.5,4.4 1977.4,-3.8 473,-5.9 946.1,-14.6 1418.9,-27.9 167,-4.7 334.3,-10 501.2,-18.8 99,-5.1 199.3,-11.1 297.8,-22.8 50.1,-5.8 107.4,-13.5 155.4,-29.6 28.8,-9.8 55.8,-23.5 74.9,-48.1 19.9,-25.7 23.8,-66.7 25.5,-98.2 2.9,-53.9 0.5,-110.2 -1.6,-164.2 -3,-85.8 -7.1,-171.8 -10.1,-257.7 -4.5,-122.4 -7.4,-245.1 -8.7,-367.5 -2.3,-235.4 -3.1,-470.8 -4,-706.1 -1.1,-340.2 -1.7,-680.5 -1.7,-1020.7 0,-11.9 -4.7,-22 -13.7,-29.5 -8.9,-7.7 -19.9,-10.6 -31.4,-8.7 -231.6,39.3 -463.7,76.7 -695.8,112.2 -79.7,12.2 -159.4,24.1 -239.4,35.5 -70.2,10.1 -142.5,16 -213.2,21.6 -110.6,8.9 -221.4,15.6 -332.1,21.8 -317.3,17.7 -635.3,30.2 -953.1,41 -873.8,29.8 -1749,46.3 -2623.3,54.4 -624.9,5.6 -1250.77,-1 -1875.69,-12.5 -726.37,-13.5 -1453.36,-33.7 -2179.23,-63.7 -266.09,-11.1 -532.46,-23.3 -798.38,-39.5 -91.66,-5.8 -183.43,-11.9 -275.09,-19.5 -56.96,-4.8 -115.22,-9.8 -171.89,-18.1 -161.12,-23.9 -327.05,-58.2 -481.6,-111.2 -37.71,-13 -75.43,-27.3 -111.86,-43.8 -11.39,-5.1 -23.91,-10.9 -34.82,-17.2 -16.05,-9.1 -35.95,-5.9 -48.15,8 -12.35,14 -13,34.1 -1.92,48.8 260.62,344.3 530.42,682.2 813.15,1008.7 218.42,252.3 445.22,498.4 683.52,732.3 178.79,175.7 364.94,345.3 560.54,502.1 142.05,113.9 289.87,222 444.54,317.9 41.73,25.9 89.91,39.2 138.71,30.4 14.72,-2.8 31.76,-8.1 46.2,-15.6 v 0" /></g><g
         transform="scale(1.76431)"
         id="g348"><path
           id="path350"
           style="fill:#282828;fill-opacity:1;fill-rule:evenodd;stroke:none"
           d="m 7721.25,15572.9 c -512.32,-319.1 -1321.31,-1005.5 -2494.15,-2554.3 0,0 192.96,110.4 642.66,177.1 449.7,66.8 3409.15,171.2 5312.44,153.7 1903.2,-17.4 3725.2,-81.1 4131.5,-139.1 406.1,-58.2 937,-148 937,-148 0,0 0,1157.6 5.8,1729.1 5.9,571.6 43.5,812.5 2.9,864.7 -40.5,52.2 -171.2,81.1 -1001,104.4 -829.7,23.2 -2930.2,63.8 -4642.1,5.8 -1711.7,-58 -2738.84,-185.7 -2738.84,-185.7 0,0 -64.9,47.4 -156.21,-7.7 v 0" /></g><g
         transform="scale(1.74778)"
         id="g352"><path
           id="path354"
           style="fill:#000000;fill-opacity:1;fill-rule:evenodd;stroke:none"
           d="m 5672.28,13273.5 c 73.3,16.7 157.35,32.9 253.01,47 453.95,67.5 3441.4,172.9 5362.71,155.2 1921.2,-17.5 3760.4,-81.9 4170.5,-140.4 240.7,-34.4 524.9,-80 718.5,-111.7 8,267.4 65.9,2153.6 123,2630.2 -121,23.8 -368.5,41.1 -897.3,55.8 -837.5,23.4 -2957.9,64.4 -4686,5.9 -1727.86,-58.6 -2764.72,-187.5 -2764.72,-187.5 0,0 -777.56,-670.7 -1480.45,-1479 -394.44,-453.7 -650.37,-778 -799.25,-975.5 v 0" /></g><g
         transform="scale(1.73371)"
         id="g356"><path
           id="path358"
           style="fill:#253536;fill-opacity:1;fill-rule:evenodd;stroke:none"
           d="m 7923.66,15651.9 c -171.36,-100.4 -809.01,-761.7 -1246.05,-1234.1 -437.05,-472.5 -593.53,-658.4 -569.82,-747 23.53,-88.7 168.25,-76.9 791.19,-47.3 623.12,29.6 2751.91,118.1 4859.92,94.5 2108.2,-23.7 3696.6,-88.6 3915,-82.7 218.7,5.9 460.7,88.6 513.8,378 53.3,289.2 112.3,1417.2 59.2,1576.7 -53.1,159.4 -206.7,277.4 -507.8,301.1 -301.2,23.5 -2722.4,35.3 -2722.4,35.3 0,0 -159.4,-177 -430.9,-194.8 -271.8,-17.7 -1624,-23.6 -1742.1,-5.9 -118.1,17.8 -153.6,206.6 -153.6,206.6 0,0 -1966.41,-129.8 -2243.91,-147.4 -277.44,-17.9 -437.04,-71 -522.53,-133 v 0" /></g><g
         transform="scale(1.70953)"
         id="g360"><path
           id="path362"
           style="fill:#455556;fill-opacity:1;fill-rule:evenodd;stroke:none"
           d="m 9014.8,13751.8 c 259.83,6.3 524,11.8 786.64,16.1 1097.46,1383.7 2144.76,2193.9 2633.16,2532.1 l -49.6,-0.3 C 11097.1,15547.4 9663.63,14326.8 9014.8,13751.8 Z M 7485.49,13704 c 402.92,15.9 860.41,30.9 1337.15,43.1 1173.59,1088.8 2498.16,1994.8 3380.06,2550.8 -289,-3 -577.5,-8 -859.4,-15.1 C 10143.5,15660.3 8771.57,14804.2 7485.49,13704 v 0" /></g><g
         transform="scale(1.70938)"
         id="g364"><path
           id="path366"
           style="fill:#455556;fill-opacity:1;fill-rule:evenodd;stroke:none"
           d="m 11438.4,13779.3 c 34.6,-0.2 69.1,-0.6 103.2,-0.9 400.7,-3.6 798.1,-9.3 1180.1,-16.4 633,1095 1498.9,1985.1 2095.4,2525.7 -285.3,5 -604.6,9.3 -944,12.3 -466,-416.7 -1417.5,-1311.2 -2434.7,-2520.7 v 0" /></g><g
         transform="scale(2.13181)"
         id="g368"><path
           id="path370"
           style="fill:#000000;fill-opacity:1;fill-rule:evenodd;stroke:none"
           d="m 13902.5,13085.9 c 200.4,59.7 448,-11.3 632.2,-95.1 108,-49 213.3,-110.3 308.4,-181.2 134,-99.9 259.4,-209.2 375.8,-329 132.1,-136.2 251,-283.7 358.9,-439.6 105.4,-152.1 208.6,-305.9 311,-459.9 95.8,-144.4 191.4,-289.2 284.7,-435.4 30.6,-47.7 61.3,-95.8 90.5,-144.5 8.2,-13.7 16.6,-27.8 23.9,-42 2.3,-4.3 4.5,-8.8 6.2,-13.3 5.9,-15.2 3.5,-32.1 -11,-42 -5.4,-3.8 -11.8,-5.7 -18.5,-5.7 -27.6,0 -55.4,0.5 -83.1,0.5 -70,0.1 -140.1,-0.5 -210,-1.8 -248.3,-4 -496.7,-14.5 -744.5,-29.8 -127.1,-7.9 -253.9,-21.3 -380.1,-37.4 -240.9,-31 -481.1,-72.5 -719.3,-119.2 -80.1,-15.5 -159.9,-31.9 -239.6,-48.6 -23.2,-4.9 -46.3,-9.9 -69.5,-14.7 -9.2,-1.8 -25.1,-6 -34.2,-6 -26,0 -55.4,30.8 -71.5,48.9 -15.8,17.8 -39.7,47.3 -39.7,72 0,30.3 -0.5,60.8 -0.8,91.1 -0.7,75.5 -1.2,151.1 -1.8,226.6 -1.4,226.3 -2.5,452.6 -2.8,678.8 -0.1,201.8 0.2,403.8 2.7,605.7 0.9,76 2.3,152.1 4.6,228 1.5,46 2.7,94.3 7.8,139.9 9.7,85.5 29.8,184.6 80.8,255.8 35.7,49.7 80.6,79 138.1,97.7 0.2,0 0.5,0.2 0.8,0.2 v 0" /></g><g
         transform="scale(2.12971)"
         id="g372"><path
           id="path374"
           style="fill:#1a1a1a;fill-opacity:1;fill-rule:evenodd;stroke:none"
           d="m 13925.2,13068.1 c -88.9,-28.8 -170.6,-91.3 -197,-326.8 -26.4,-235.6 -9.7,-1947 -9.7,-1968.5 0,-21.7 62.6,-89 79.4,-89 16.9,0 819.6,187.5 1442.1,225.9 622.5,38.5 1021.5,31.3 1040.7,31.3 19.3,0 -480.6,757 -713.8,1093.5 -233.2,336.6 -473.5,572.1 -728.3,762.1 -254.8,189.9 -646.5,350.8 -913.4,271.5 v 0" /></g><g
         transform="scale(2.10145)"
         id="g376"><path
           id="path378"
           style="fill:#000000;fill-opacity:1;fill-rule:evenodd;stroke:none"
           d="m 14465.7,13161.1 c -116.9,14.6 -353.2,17 -440.9,-148.6 -87.7,-165.7 -75.6,-2063.2 -75.6,-2063.2 l 847.8,126.7 c 0,0 823.3,83.4 981.6,87.9 158.4,4.6 472.6,7.1 497,7.1 24.4,0 -431.1,811 -591.9,1057.1 -160.8,246 -287.5,389.8 -540.8,604.1 -253.3,214.4 -509.1,304.5 -677.2,328.9 v 0" /></g><g
         transform="scale(2.09835)"
         id="g380"><path
           id="path382"
           style="fill:#253536;fill-opacity:1;fill-rule:evenodd;stroke:none"
           d="m 13969.3,11226.6 v -26.5 -4.4 -25.5 c 0.2,-97.2 0.4,-166.1 0.5,-192.6 v -0.2 -6.5 -0.1 -3.9 0 -1.4 l 849.1,126.8 c 0,0 824.4,83.5 983,88.1 158.6,4.6 473.3,7.1 497.7,7.1 0.3,0 0.3,0.2 0.4,0.2 -15.7,64.7 -439.3,802.7 -593.2,1033.7 -161,241.7 -287.8,382.8 -541.5,593.3 -253.7,210.6 -509.9,299.1 -678.2,323 -117.1,14.3 -353.8,16.8 -441.6,-145.9 -67.1,-124.5 -75.8,-1246.2 -76.2,-1765.2 v 0" /></g><g
         transform="scale(2.04232)"
         id="g384"><path
           id="path386"
           style="fill:#455556;fill-opacity:1;fill-rule:evenodd;stroke:none"
           d="m 15685.7,13077.3 c -32.4,28.5 -67,58 -104.4,89 -62.3,51.8 -124.8,96.2 -186,134.4 -266.6,-18.3 -630,-50.3 -995.4,-104.6 -7.9,-69.9 -14.6,-158.9 -20.1,-260.1 256.5,42.2 766.7,116.6 1305.9,141.3 z m 208,-202.1 c -42.4,46.5 -87.8,92.1 -138.6,139.4 -296.9,-11.4 -778.8,-47.3 -1379.2,-154.9 -1.7,-35.4 -3.2,-71.9 -4.6,-109.4 427.6,54.6 1029.7,119.1 1522.4,124.9 z m 406.3,-579.6 c -64.3,107.5 -122.2,201 -162.3,261.1 -54.4,81.6 -104.9,152 -157.5,217.5 -494.8,5.8 -1075.4,-7.5 -1610.7,-70 -6.4,-182.4 -10.6,-383.3 -13.1,-575.7 788.4,146.7 1444.4,179.6 1943.6,167.1 v 0" /></g><g
         transform="scale(1.99823)"
         id="g388"><path
           id="path390"
           style="fill:#282828;fill-opacity:1;fill-rule:evenodd;stroke:none"
           d="m 15212.9,13840.9 c -20.7,2.6 -44.9,4.7 -71.4,5.8 37.8,-66.4 267.9,-476.7 478.7,-992.1 202.3,-494.4 363.2,-1036.2 399.7,-1161.7 94.3,9.1 191.7,18 280.1,25.9 -52.7,162.8 -241.7,733.9 -428.7,1153.8 -197.6,443.5 -426.1,818.8 -506.3,934 -55.6,16.6 -106.9,27.7 -152.1,34.3 v 0" /></g><g
         transform="scale(2.0832)"
         id="g392"><path
           id="path394"
           style="fill:#282828;fill-opacity:1;fill-rule:evenodd;stroke:none"
           d="m 16221.4,11267 c 27.9,0.3 54.5,0.6 78.6,0.8 -23,69.3 -88.3,253.5 -221,541.6 -133.5,289.8 -292.1,562 -356.5,669.2 -48.1,66.3 -96.3,125.8 -149.3,184.4 58.2,-102.3 168.8,-301.6 306.8,-571.1 189.9,-370.7 321.5,-764.2 341.4,-824.9 v 0" /></g><g
         transform="scale(1.97085)"
         id="g396"><path
           id="path398"
           style="fill:#1a1a1a;fill-opacity:1;fill-rule:evenodd;stroke:none"
           d="m 15416.9,14034.1 c -19.3,2.2 -41.3,4 -65,5 38.3,-67.3 271.6,-483.4 485.4,-1005.9 205.1,-501.2 368.2,-1050.5 405.2,-1177.8 18.9,1.8 38.2,3.7 57.5,5.4 -37.7,138 -213.1,765.2 -410.8,1211.4 -209,471.3 -399.7,858.7 -472.3,961.9 v 0" /></g><g
         transform="scale(2.07528)"
         id="g400"><path
           id="path402"
           style="fill:#1a1a1a;fill-opacity:1;fill-rule:evenodd;stroke:none"
           d="m 16283.3,11310.1 16.7,0.1 c -25.2,78.8 -132.5,403.1 -297.6,744 -123,253.9 -235.7,461.2 -299.7,576 -22.7,27.6 -45.8,54.5 -70,81.1 58.4,-102.7 169.4,-302.6 307.9,-573.3 190.7,-372 322.8,-767 342.7,-827.9 v 0" /></g><g
         transform="scale(1.98458)"
         id="g404"><path
           id="path406"
           style="fill:#000000;fill-opacity:1;fill-rule:evenodd;stroke:none"
           d="m 16279.3,11787.3 20.7,1.9 c -27.3,119.4 -128.1,524.9 -348.8,1029 -242,552.5 -509.1,1027.2 -551.7,1102.4 -5.9,1.2 -11.6,2.5 -17.3,3.8 l -6.5,-3.8 c 0.7,-1.5 293.8,-510.4 556.7,-1110.7 218.5,-499.1 319,-900.8 346.9,-1022.6 v 0" /></g><g
         transform="scale(1.72609)"
         id="g408"><path
           id="path410"
           style="fill:#000000;fill-opacity:1;fill-rule:evenodd;stroke:none"
           d="m 16291.8,9936.84 c 2.8,13.62 5.4,26.94 8.2,40.38 -115.6,-9.67 -873.4,-72.25 -1010.8,-72.25 -125.3,0 -145.3,266.53 -156.9,418.43 l -1.4,18.7 c -4.1,55.2 -6.9,111.1 -9.4,162.1 -4.6,98.2 -8.5,179.7 -21.7,202.4 l -34.1,-20.1 c 8.4,-14.2 12.1,-91.3 16.6,-184 2.4,-52.7 5.2,-109.9 9.3,-163.3 l 1.3,-18.7 c 12.6,-165.2 34.4,-455.09 196.3,-455.09 135,0 855.8,59.26 1002.6,71.43 v 0" /></g><g
         transform="scale(2.19859)"
         id="g412"><path
           id="path414"
           style="fill:#000000;fill-opacity:1;fill-rule:nonzero;stroke:none"
           d="m 15797.5,10581.8 c 42.5,-43.2 107.3,-122.3 170.8,-205.7 94,-123.6 186.5,-257.5 198.9,-297.2 13.5,-43.1 9.8,-75.1 5,-115.92 -4,-33.29 -8.5,-72.73 -4.3,-129.72 3.1,-40.75 18.5,-126.08 37.6,-231.42 39.6,-217.77 94.5,-519.97 88.2,-696.85 -5.3,-145.83 -43.6,-383.34 -85.5,-642.46 -33.3,-206.32 -68.8,-426.41 -91.5,-625.36 -26.1,-227.42 -72.6,-450.06 -127.9,-625.4 -54.7,-173.16 -118.8,-301.33 -181.4,-344.77 -91.7,-63.45 -1035.7,-286.86 -1519.7,-398.66 0.3,10.69 0.7,21.29 1.1,31.97 484.9,111.94 1413.6,331.76 1500.9,392.21 56.9,39.21 116.8,161.7 169.4,328.67 54.8,173.52 100.8,394.11 126.8,619.62 22.7,198.17 58.4,419.41 91.7,626.58 41.8,258.26 80,494.73 85.2,638.73 6.1,173.57 -48.4,473.94 -87.7,690.31 -19.4,106.48 -35,192.85 -38.1,234.65 -4.5,59.81 0.3,100.84 4.4,135.36 4.3,37.36 7.8,66.56 -3.7,103.26 -11.4,36.2 -101.7,166.3 -194.1,287.5 -68.1,89.6 -136.4,173.7 -172.8,209.9 6.3,0 12.5,2 17.7,5.6 3.8,2.5 6.8,5.8 9,9.1 v 0" /></g><g
         transform="scale(2.0775)"
         id="g416"><path
           id="path418"
           style="fill:#000000;fill-opacity:1;fill-rule:nonzero;stroke:none"
           d="m 16102.2,6909.85 c 0.4,1.93 142.7,669.56 157.4,767.8 6.6,43.66 -20.6,109.7 -51.2,184.46 -33.8,82.16 -71.8,174.53 -77,265.56 -3.6,62.76 4.4,199.32 14.4,376.56 18.3,316.43 44,762.6 25,1141.37 -21.9,440.6 -63.1,617.4 -84.6,709.4 -7.5,31.9 -12.5,53.9 -13.9,73.8 -2.6,37.8 2.3,74.9 6.7,108.6 4.2,32.5 7.9,61.4 3.5,81.2 -5.8,26.3 -99.9,185.3 -226.7,344.1 -77.4,96.9 -166.6,192.9 -254.8,257.2 l 19.2,26.5 c 91.1,-66.4 182.3,-164.6 261.2,-263.4 129.6,-162.3 226.6,-328.6 233,-357.3 5.7,-25.4 1.6,-56.9 -2.9,-92.5 -4.3,-32 -8.8,-67.3 -6.4,-102.2 1,-17.2 5.9,-38.2 13,-68.5 21.6,-92.9 63.2,-271.4 85.4,-715.41 19,-380.41 -6.6,-827.53 -24.9,-1144.65 -10.1,-176.12 -17.9,-312.15 -14.5,-372.9 4.9,-85.68 41.8,-175.3 74.5,-255.01 32.6,-79.28 61.4,-149.27 53.5,-201.64 -14.9,-98.92 -157.4,-767.95 -157.9,-769.82 l -32,6.78" /></g><g
         transform="scale(1.88495)"
         id="g420"><path
           id="path422"
           style="fill:#000000;fill-opacity:1;fill-rule:nonzero;stroke:none"
           d="m 15660.9,12048.4 c 56.1,-63.6 127.5,-158.6 192.5,-253.8 85.8,-126.1 160.8,-253.6 174.6,-311.3 13.6,-57.3 3.3,-98.5 -6.2,-137.1 -9.6,-38.3 -18.5,-73.6 4.7,-119.8 26.1,-52.2 69.5,-296.1 112.4,-617.9 40.2,-300.3 80.5,-668.93 106.7,-1012.71 54.4,-712.48 43.6,-903.36 43.4,-903.79 l -35.9,1.65 c 0,0.58 10.7,188.76 -43.4,899.44 -26.4,344.09 -66.5,711.81 -106.5,1010.71 -42.6,318.2 -84.5,557.8 -108.9,606.5 -29.2,58.2 -18.8,99.5 -7.7,144.7 8.6,34.3 17.7,71 6.2,119.8 -12.8,53.4 -85.6,176.4 -169.4,299.5 -69.9,102.7 -147,204.5 -203.3,265.5 3.1,0.8 5.8,1.4 8.2,1.8 10.8,2.3 21.8,4.6 32.6,6.8 v 0" /></g><g
         transform="scale(1.75894)"
         id="g424"><path
           id="path426"
           style="fill:#000000;fill-opacity:1;fill-rule:nonzero;stroke:none"
           d="m 13832.1,11535.4 c 1.9,1.8 631.1,613.6 1355.9,935.1 404.5,179.3 670.6,262.2 835.6,313.6 125.6,39 190.6,59.3 209.9,87 29.3,42.4 28.2,134.1 22.7,199.2 l 37.7,-6.5 c 0.5,0 1,-0.1 1.4,-0.1 4.7,-70.1 3.6,-165.9 -30.1,-214.5 -26.9,-38.9 -96.2,-60.5 -230.1,-102.2 -164.2,-51 -428.7,-133.4 -831.4,-312 -718.6,-318.8 -1343,-925.7 -1344.7,-927.4 l -26.9,27.8" /></g><g
         transform="scale(1.78838)"
         id="g428"><path
           id="path430"
           style="fill:#000000;fill-opacity:1;fill-rule:nonzero;stroke:none"
           d="m 16070.2,12914.9 228.4,-58 c 0,-9.4 0.2,-18.7 0.2,-28.1 0,-3.8 0.4,-7.8 1.2,-11.7 l -231.2,58.8 c 0.9,3.3 1.4,6.8 1.4,10.6 v 28.4" /></g><g
         transform="scale(1.34501)"
         id="g432"><path
           id="path434"
           style="fill:#000000;fill-opacity:1;fill-rule:nonzero;stroke:none"
           d="m 3767.62,15022.2 c 0,1.3 11.59,439.9 349.43,793.1 334.04,349.5 596.01,484.3 596.64,484.7 l 23.18,-45.1 c -0.63,-0.4 -255.01,-131.3 -583.15,-474.4 -324.35,-339.3 -335.52,-758.5 -335.52,-759.7 l -50.58,1.4" /></g><g
         transform="scale(1.19977)"
         id="g436"><path
           id="path438"
           style="fill:#000000;fill-opacity:1;fill-rule:nonzero;stroke:none"
           d="m 15787.1,16186.1 c 98.2,22.5 319.7,73.1 495.9,113.9 -6.3,-20.3 -6.2,-39.9 -1.4,-58.5 -149.3,-34.5 -337.7,-77.8 -445.9,-102.6 -15.8,15.8 -31.6,31.2 -47.9,46.6 l -0.7,0.6" /></g><g
         transform="scale(1.19732)"
         id="g440"><path
           id="path442"
           style="fill:#000000;fill-opacity:1;fill-rule:nonzero;stroke:none"
           d="m 6625.67,16300 410.28,-85.4 -11.59,-55.7 -410.29,85.5 11.6,55.6" /></g><g
         transform="scale(2.05564)"
         id="g444"><path
           id="path446"
           style="fill:#000000;fill-opacity:1;fill-rule:evenodd;stroke:none"
           d="m 16058.7,10479.7 c 26.3,6.5 53.1,6.1 78.6,-3.3 96.9,-35.6 135.9,-182 152.6,-273.3 7.4,-40.3 10.1,-82.2 10,-123.2 -0.4,-68.7 -12.7,-262.8 -111.8,-264.55 -106.7,-1.8 -156.1,212.65 -170,290.85 -3.8,22 -7,44.2 -9.3,66.4 -5.9,57.1 -14.3,117.3 -15.2,174.7 -0.6,40.1 2.7,90.1 36.4,117.5 8,6.6 17.1,11.3 27.1,14.4 0.5,0.2 1,0.4 1.6,0.5 v 0" /></g><g
         transform="scale(2.05338)"
         id="g448"><path
           id="path450"
           style="fill:#3971db;fill-opacity:1;fill-rule:evenodd;stroke:none"
           d="m 16084.4,10458.9 c -56.8,-17.4 -41.2,-117.2 -24.9,-271.6 16.1,-154.7 75.9,-329.17 145.8,-327.9 69.9,1.22 94.7,211.9 69.9,349 -25.1,137 -81.1,278 -190.8,250.5 v 0" /></g><g
         transform="scale(2.05138)"
         id="g452"><path
           id="path454"
           style="fill:#021a45;fill-opacity:1;fill-rule:evenodd;stroke:none"
           d="m 16100,10469.1 c -29.7,-9.1 -39.6,-40.8 -39.9,-90.9 0.3,-42.3 7.2,-97.9 14.1,-163.9 15.2,-145.2 71.5,-308.97 136.9,-307.85 65.6,1.22 88.9,198.95 65.6,327.65 -21.4,117 -66.7,236.7 -152,238.5 -7.9,-0.1 -16.1,-1.3 -24.7,-3.5 v 0" /></g><g
         transform="scale(2.06707)"
         id="g456"><path
           id="path458"
           style="fill:#000000;fill-opacity:1;fill-rule:evenodd;stroke:none"
           d="m 15935.6,10210.6 c 49.9,7.9 100.3,14.9 150.3,20.8 34.4,4.1 135.8,17.7 165.8,3.7 48.3,-22.2 37.7,-122.9 28.9,-164 -10.8,-50.3 -36.3,-110.95 -89.8,-127.64 -84.2,-26.37 -161.8,-49.25 -236.7,13.55 -21.8,18.38 -38.4,42.96 -50,68.79 -13.7,30.4 -22.4,66.3 -21.3,99.8 1.1,32.6 12.4,68.3 44.6,82.5 2.8,1.2 5.2,2.1 8.2,2.5 v 0" /></g><g
         transform="scale(2.06328)"
         id="g460"><path
           id="path462"
           style="fill:#093994;fill-opacity:1;fill-rule:evenodd;stroke:none"
           d="m 15970,10196.6 c -44.6,-19.7 -27.2,-143.8 34.7,-195.9 62.1,-52.2 126.6,-32.23 206,-7.52 79.4,24.82 89.3,215.82 57,230.82 -32.2,14.8 -297.7,-27.4 -297.7,-27.4 v 0" /></g><g
         transform="scale(2.05762)"
         id="g464"><path
           id="path466"
           style="fill:#568ef7;fill-opacity:1;fill-rule:evenodd;stroke:none"
           d="m 16040.1,10213.5 c -36.1,-11.1 -38.6,-55.9 3.7,-62.3 42.3,-6.2 167.9,-8.7 200.3,17.5 32.4,26.1 55.9,65.9 39.8,69.7 -16.3,3.8 -243.8,-24.9 -243.8,-24.9 v 0" /></g><g
         transform="scale(2.05809)"
         id="g468"><path
           id="path470"
           style="fill:#032461;fill-opacity:1;fill-rule:evenodd;stroke:none"
           d="m 16027.7,10065.7 c 57.1,-63.5 85.8,-59.7 155.3,-49.8 69.8,10 102.1,47.2 109.6,74.6 7.4,27.4 -33.7,-33.6 -109.6,-47.2 -75.7,-13.7 -155.3,22.4 -155.3,22.4 v 0" /></g><g
         transform="scale(2.17661)"
         id="g472"><path
           id="path474"
           style="fill:#000000;fill-opacity:1;fill-rule:evenodd;stroke:none"
           d="m 16089.3,9978.55 c 23,5.61 46.4,5.2 68.6,-2.89 84.7,-30.74 118.8,-157.31 133.2,-236.1 6.4,-34.78 8.9,-71.12 8.6,-106.54 -0.2,-59.36 -11,-226.96 -97.5,-228.52 -93,-1.7 -136.2,183.59 -148.2,251.3 -3.4,19.03 -6.1,38.18 -8.2,57.34 -5.2,49.35 -12.5,101.44 -13.3,151.06 -0.4,34.65 2.5,77.74 31.8,101.58 7,5.61 14.9,9.65 23.5,12.36 0.6,0.14 1,0.28 1.5,0.41 v 0" /></g><g
         transform="scale(2.17452)"
         id="g476"><path
           id="path478"
           style="fill:#3971db;fill-opacity:1;fill-rule:evenodd;stroke:none"
           d="m 16111.8,9960.21 c -49.6,-15.12 -35.9,-101.26 -21.8,-234.76 14.2,-133.5 66.3,-284.29 127.4,-283.28 60.8,1.06 82.6,183.17 60.8,301.54 -21.7,118.46 -70.8,240.23 -166.4,216.5 v 0" /></g><g
         transform="scale(2.17266)"
         id="g480"><path
           id="path482"
           style="fill:#021a45;fill-opacity:1;fill-rule:evenodd;stroke:none"
           d="m 16125.6,9968.74 c -26,-7.96 -34.6,-35.21 -34.9,-78.52 0.3,-36.69 6.3,-84.56 12.3,-141.72 13.3,-125.38 62.2,-266.82 119.5,-265.9 57.1,1.06 77.5,171.96 57.1,283.11 -18.5,100.99 -58.2,204.45 -132.5,206.02 -6.9,-0.23 -14.1,-1.15 -21.5,-2.99 v 0" /></g><g
         transform="scale(2.18717)"
         id="g484"><path
           id="path486"
           style="fill:#000000;fill-opacity:1;fill-rule:evenodd;stroke:none"
           d="m 15981.7,9747.78 c 43.5,6.85 87.5,12.8 131.3,18.01 30,3.61 118.6,15.27 144.8,3.25 42.2,-19.34 32.9,-106.31 25.2,-141.92 -9.3,-43.44 -31.7,-95.93 -78.4,-110.42 -73.5,-22.72 -141.3,-42.52 -206.7,11.75 -19,15.96 -33.6,37.08 -43.8,59.53 -12,26.29 -19.3,57.38 -18.4,86.28 0.9,28.16 10.7,58.98 38.9,71.41 2.3,1.05 4.5,1.69 7.1,2.11 v 0" /></g><g
         transform="scale(2.18365)"
         id="g488"><path
           id="path490"
           style="fill:#093994;fill-opacity:1;fill-rule:evenodd;stroke:none"
           d="m 16012,9735.17 c -39,-17.13 -24,-124.38 30.3,-169.4 54.1,-45.06 110.5,-27.93 179.7,-6.5 69.3,21.52 78,186.66 49.8,199.53 -28.1,12.82 -259.8,-23.63 -259.8,-23.63 v 0" /></g><g
         transform="scale(2.17844)"
         id="g492"><path
           id="path494"
           style="fill:#568ef7;fill-opacity:1;fill-rule:evenodd;stroke:none"
           d="m 16073,9748.83 c -31.4,-9.64 -33.6,-48.43 3.3,-53.75 37,-5.33 146.5,-7.53 174.8,14.96 28.2,22.63 48.9,57.01 34.7,60.27 -14,3.26 -212.8,-21.48 -212.8,-21.48 v 0" /></g><g
         transform="scale(2.17887)"
         id="g496"><path
           id="path498"
           style="fill:#032461;fill-opacity:1;fill-rule:evenodd;stroke:none"
           d="m 16062.3,9621.08 c 49.8,-54.8 74.8,-51.54 135.7,-42.96 60.7,8.63 89,40.85 95.5,64.53 6.5,23.59 -29.3,-29.14 -95.5,-40.84 -66.3,-11.84 -135.7,19.27 -135.7,19.27 v 0" /></g><g
         transform="scale(2.04494)"
         id="g500"><path
           id="path502"
           style="fill:#000000;fill-opacity:1;fill-rule:evenodd;stroke:none"
           d="m 15334.3,11150 c -10.3,-13.3 -26.1,-47 -31.9,-59.1 -19.3,-39.7 -37.3,-80.4 -55.5,-120.7 -20.5,-45.6 -41.2,-92.1 -64.1,-136.6 -8.5,-16.2 -17.5,-33 -28.1,-47.9 -11.2,-16 -26.2,-31.8 -47.6,-30.3 -24.4,1.9 -67,36.7 -86,51.6 -40.2,31.6 -79.3,65.3 -117.4,99.4 -38.8,34.5 -77.3,70.2 -113.9,107.1 -13.2,13.1 -26.5,26.8 -38.4,41.1 -9.9,11.8 -21.2,25.9 -21.9,41.9 -1.4,30.3 28.4,79.5 50.9,112.1 -4.4,10 -8.2,20.5 -11.4,29.4 -5.2,14.1 -9.2,29.1 -13.1,43.5 -5.2,20 -10.2,40.2 -14.9,60.3 -7,30.4 -14.4,63.4 -17.6,94.3 -2.5,23.4 -1.8,49.3 -1.1,72.8 1.2,33.4 3.7,67.1 7.6,100.2 4.7,41.4 11.8,86.8 25.1,126.4 10.4,31.5 38.9,70.2 59,96.8 31.3,41.1 65.6,81 100.7,119.3 39.3,43 159,170.3 214.6,183.8 0.5,0.1 1,0.1 1.6,0.3 28.1,5.3 61.4,4.3 89.8,2.5 44,-2.7 88.2,-8.3 131.7,-15.3 122.2,-19.5 244.8,-49.5 363.5,-84.4 113.2,-33.3 227.3,-73.2 334.8,-122.2 34.6,-15.9 69.4,-32.9 102.2,-52.2 18.4,-10.8 42.8,-25.7 57.4,-41.4 29.1,-31.5 55.2,-111 66,-152.2 11.6,-44.1 23.7,-107.2 11.9,-151.8 -5,-19 -9.7,-37.9 -14.7,-56.8 -11.2,-42 -31.4,-123.8 -69.2,-148.9 -13.3,-9 -30.2,-16.2 -45,-22.3 -23.7,-9.8 -48,-18.3 -72.4,-26.2 -71.7,-23.2 -145.9,-41.6 -219.8,-56.6 -72.6,-14.8 -149,-22.9 -222.8,-30.2 -68.9,-6.6 -137.9,-12.1 -206.9,-17.7 -24.7,-2.1 -49.4,-4.1 -74.1,-6.5 -7.8,-0.9 -19.9,-1.9 -29,-3.5 v 0" /></g><g
         transform="scale(2.04178)"
         id="g504"><path
           id="path506"
           style="fill:#1a1a1a;fill-opacity:1;fill-rule:evenodd;stroke:none"
           d="m 15160.5,12121.7 c -62.6,-15.1 -323.4,-295.8 -351,-378.6 -27.6,-82.7 -35.1,-238.2 -30.1,-285.8 5,-47.6 32.6,-159.3 43.8,-190.5 11.4,-31.4 19,-43.9 19,-43.9 0,0 -57.8,-79 -56.6,-107.8 1.4,-28.8 312.3,-307.1 347.4,-309.6 34.9,-2.5 175.5,381.1 209.2,392.3 33.9,11.2 369.8,25.1 542.8,60.3 173,34.9 295.9,80.1 326,100.2 30,20 51.4,115.4 70.1,186.7 18.9,71.5 -38.8,239.5 -70.1,273.4 -31.4,33.7 -206.9,126.5 -480.2,206.7 -273.2,80.2 -496.3,110.4 -570.3,96.6 v 0" /></g><g
         transform="scale(2.04044)"
         id="g508"><path
           id="path510"
           style="fill:#282828;fill-opacity:1;fill-rule:evenodd;stroke:none"
           d="m 15170.4,12129.7 c -62.6,-15.2 -323.6,-296.1 -351.2,-378.9 -21.4,-64.2 -30.7,-172.2 -31.5,-239.6 46.2,-9.7 1366.7,51 1507.4,64 4.9,79.5 -45.1,220.2 -73.5,250.9 -31.4,33.8 -207,126.6 -480.5,206.9 -273.4,80.3 -496.7,110.4 -570.7,96.7 v 0" /></g><g
         transform="scale(2.03915)"
         id="g512"><path
           id="path514"
           style="fill:#535353;fill-opacity:1;fill-rule:evenodd;stroke:none"
           d="m 16288.2,11506.3 c 4.2,15.5 8.1,30.9 11.8,45.5 l -1117.5,-54.6 c 0,0 17.6,-40.2 46.4,-41.4 26.8,-1.3 926.7,43.9 1059.3,50.5 v 0" /></g><g
         transform="scale(2.03098)"
         id="g516"><path
           id="path518"
           style="fill:#363636;fill-opacity:1;fill-rule:evenodd;stroke:none"
           d="m 15241.1,12186.2 c -63,-15.2 -325.1,-297.5 -352.9,-380.6 l -0.2,-0.9 c 183.6,5.6 1347.5,52.5 1370.1,52.5 16.6,0 33.2,12.8 41.9,20.7 -1,1.1 -2,2.2 -2.8,3.3 -31.6,33.9 -208,127.2 -482.8,207.8 -274.6,80.7 -498.9,111 -573.3,97.2 v 0" /></g><g
         transform="scale(1.91636)"
         id="g520"><path
           id="path522"
           style="fill:#000000;fill-opacity:1;fill-rule:evenodd;stroke:none"
           d="m 15805.2,11974.1 c 5.2,-11.6 8.3,-16.7 8.3,-16.7 0,0 -3.7,-5 -9.2,-13.2 48.4,-17.7 120,-37.4 196.9,-55.7 98.9,-23.7 207.2,-45.3 286.1,-58.4 4.2,9.3 8.5,18.1 12.7,26.6 -78.3,12.9 -190.1,35.2 -292.3,59.4 -81.6,19.6 -156.6,40.3 -202.5,58 v 0" /></g><g
         transform="scale(1.88523)"
         id="g524"><path
           id="path526"
           style="fill:#282828;fill-opacity:1;fill-rule:evenodd;stroke:none"
           d="m 16039.2,12029.9 c 47.6,-54.2 138.5,-143.9 164.4,-157.4 25.7,-13.7 96.4,149.3 95,173.6 -1.3,24.6 -156.2,62.6 -188.7,65.3 -32.6,2.7 -73.4,-61.2 -70.7,-81.5 v 0" /></g><g
         transform="scale(1.82398)"
         id="g528"><path
           id="path530"
           style="fill:#0d0d0d;fill-opacity:1;fill-rule:evenodd;stroke:none"
           d="m 16057.2,13376.8 c 36.5,2.9 46.4,-14.1 65.9,-57.5 19.8,-43.6 174.1,-691.8 175.5,-702.9 1.4,-11.4 -215.4,-24.6 -229.4,-24.6 -14.1,0 -12,785 -12,785 v 0" /></g></g></g></svg>